<svg xmlns="http://www.w3.org/2000/svg" version="1.1" xmlns:xlink="http://www.w3.org/1999/xlink" xmlns:svgjs="http://svgjs.dev/svgjs" width="400" height="600" preserveAspectRatio="none" viewBox="0 0 400 600"><g mask="url(&quot;#SvgjsMask1037&quot;)" fill="none"><rect width="400" height="600" x="0" y="0" fill="url(&quot;#SvgjsLinearGradient1038&quot;)"></rect><path d="M100 35.29C71.28 35.29 35.29 65.19 35.29 100C35.29 141.55 72.07 188 100 188C124.8 188 140.74 142.69 140.74 100C140.74 66.34 124 35.29 100 35.29" stroke="rgba(51, 121, 194, 0.58)" stroke-width="2"></path><path d="M300 80.46C283.39 80.46 265.31 88.28 265.31 100C265.31 113.79 283.94 131.48 300 131.48C313.78 131.48 325 114.26 325 100C325 88.75 313.24 80.46 300 80.46" stroke="rgba(51, 121, 194, 0.58)" stroke-width="2"></path><path d="M381.4 0C394.95 3.24 397.35 9.65 400 23.88C406.65 59.65 400 61.94 400 100C400 150 400 150 400 200C400 240.38 405.11 241.97 400 280.77C398.53 291.97 394.63 291.36 386.84 300C344.63 346.81 348.82 355.99 300 391.67C280.4 405.99 250 396.41 250 400C250 403.57 274.98 403.15 300 406C349.98 411.69 372.59 391.31 400 417.07C422.59 438.31 400 458.53 400 500C400 550 409.26 559.26 400 600C397.9 609.26 388.15 602.89 377.27 600C338.15 589.61 334.69 573.44 300 573.44C285.69 573.44 294.18 596.04 279.27 600C244.18 609.32 239.63 600 200 600C150.76 600 123.52 624.75 101.52 600C79.08 574.75 97.84 547.71 111.11 500C125.65 447.71 156.98 450.06 157.14 400C157.3 350.06 130.42 351.31 111.76 300C101.85 272.74 105.09 242.86 100 242.86C94.96 242.86 102.59 273.83 91.49 300C69.26 352.4 65.83 352.63 33.33 400C20.09 419.3 9.76 433.33 0 433.33C-6.9 433.33 0 416.66 0 400C0 350 0 350 0 300C0 250 0 250 0 200C0 150 0 150 0 100C0 50 -25 25 0 0C25 -25 50 0 100 0C150 0 150 0 200 0C250 0 250 0 300 0C340.7 0 344.95 -8.7 381.4 0" stroke="rgba(51, 121, 194, 0.58)" stroke-width="2"></path><path d="M38.1 0C38.1 11.16 11.16 38.1 0 38.1C-7.89 38.1 -9.53 9.53 0 0C9.53 -9.53 38.1 -7.89 38.1 0" stroke="rgba(51, 121, 194, 0.58)" stroke-width="2"></path><path d="M187.04 100C188.21 50.45 139.06 32.91 143.33 0C145.54 -17.09 171.67 0 200 0C250 0 250 0 300 0C326.16 0 352.33 -10.75 352.33 0C352.33 15.11 329.53 30.33 300 51.72C260.51 80.33 214.29 71.04 214.29 100C214.29 134.07 252.05 147.94 300 177.78C332.41 197.94 370.71 175.08 375 200C381.23 236.19 350.59 251.86 321.05 300C313.09 312.97 314.18 320.05 300 322.22C253.65 329.31 246.39 327.51 200 318.52C189.04 316.4 190.71 310.46 185.29 300C160.01 251.2 138.16 249.83 138.6 200C139.04 149.83 185.85 150.45 187.04 100" stroke="rgba(51, 121, 194, 0.58)" stroke-width="2"></path><path d="M361.76 100C361.76 77.09 388.83 61.19 400 61.19C407.95 61.19 400 80.59 400 100C400 143.33 409.14 186.67 400 186.67C390.02 186.67 361.76 139.83 361.76 100" stroke="rgba(51, 121, 194, 0.58)" stroke-width="2"></path><path d="M0 192.86C1.17 192.86 2.95 196.07 4.35 200C22.1 249.64 39.7 253.63 38.3 300C37.53 325.58 10.92 343.9 0 343.9C-8.23 343.9 0 321.95 0 300C0 250 0 250 0 200C0 196.43 -1 192.86 0 192.86" stroke="rgba(51, 121, 194, 0.58)" stroke-width="2"></path><path d="M229.03 500C264.46 477.91 261.18 467.91 300 456C346.66 441.69 367.16 433.11 400 447.56C417.16 455.11 400 473.78 400 500C400 534.13 419.63 561.5 400 568.25C369.63 578.69 342.28 525.5 300 534.38C266.67 541.38 280.31 579.31 248.78 600C230.31 612.12 224.39 600 200 600C169.69 600 139.39 615.24 139.39 600C139.39 574.43 166.5 555.74 200 518.37C211.32 505.74 214.46 509.09 229.03 500" stroke="rgba(51, 121, 194, 0.58)" stroke-width="2"></path><path d="M300 22.99C267.03 22.99 228.57 5.89 228.57 0C228.57 -5.61 264.28 0 300 0C311.63 0 323.26 -4.78 323.26 0C323.26 6.72 314.37 22.99 300 22.99" stroke="rgba(51, 121, 194, 0.58)" stroke-width="2"></path><path d="M398.53 100C398.53 99.12 399.57 98.51 400 98.51C400.31 98.51 400 99.25 400 100C400 101.66 400.35 103.33 400 103.33C399.62 103.33 398.53 101.53 398.53 100" stroke="rgba(51, 121, 194, 0.58)" stroke-width="2"></path><path d="M182.46 200C182.46 182.27 187.36 164.29 200 164.29C217.87 164.29 243.48 182.51 243.48 200C243.48 217.03 218.08 233.33 200 233.33C187.57 233.33 182.46 216.79 182.46 200" stroke="rgba(51, 121, 194, 0.58)" stroke-width="2"></path><path d="M314.29 500C314.29 487.5 365.66 478.05 400 478.05C408.52 478.05 400 489.02 400 500C400 514.29 410.3 528.57 400 528.57C367.44 528.57 314.29 512.76 314.29 500" stroke="rgba(51, 121, 194, 0.58)" stroke-width="2"></path><path d="M177.27 600C177.27 590.41 189.4 569.39 200 569.39C209.91 569.39 218.29 589.88 218.29 600C218.29 605.19 209.14 600 200 600C188.63 600 177.27 605.72 177.27 600" stroke="rgba(51, 121, 194, 0.58)" stroke-width="2"></path></g><defs><mask id="SvgjsMask1037"><rect width="400" height="600" fill="#ffffff"></rect></mask><linearGradient x1="-12.5%" y1="8.33%" x2="112.5%" y2="91.67%" gradientUnits="userSpaceOnUse" id="SvgjsLinearGradient1038"><stop stop-color="#0e2a47" offset="0"></stop><stop stop-color="rgba(2, 58, 130, 1)" offset="1"></stop></linearGradient></defs></svg>