<svg xmlns="http://www.w3.org/2000/svg" version="1.1" xmlns:xlink="http://www.w3.org/1999/xlink" xmlns:svgjs="http://svgjs.dev/svgjs" width="400" height="600" preserveAspectRatio="none" viewBox="0 0 400 600"><g mask="url(&quot;#SvgjsMask1039&quot;)" fill="none"><rect width="400" height="600" x="0" y="0" fill="#0e2a47"></rect><path d="M107.39 661.38C188.73 588.82 130.92 338.6 273.96 258.46 417 178.32 383.82 109.05 440.53 96.46" stroke="rgba(51,121,194,0.58)" stroke-width="2"></path><path d="M55.04 620.4C138.9 560.56 91.77 313.81 237.47 250.89 383.18 187.97 361.59 110.1 419.91 100.89" stroke="rgba(51,121,194,0.58)" stroke-width="2"></path><path d="M158.42 662.88C208.92 581.01 124.32 377.29 249.22 288.97 374.12 200.65 369.36 128.22 430.82 114.97" stroke="rgba(51,121,194,0.58)" stroke-width="2"></path><path d="M197.91 708.14C247.74 576.74 190.57 179.29 281.96 152.32 373.34 125.35 379.45 385.74 450.05 422.32" stroke="rgba(51,121,194,0.58)" stroke-width="2"></path><path d="M227.67 612.21C271.07 550.15 196.99 399.97 307.48 320.01 417.96 240.05 406.99 142.75 467.09 122.01" stroke="rgba(51,121,194,0.58)" stroke-width="2"></path></g><defs><mask id="SvgjsMask1039"><rect width="400" height="600" fill="#ffffff"></rect></mask></defs></svg>