<svg id="canvas" height="auto" xmlns="http://www.w3.org/2000/svg" version="1.1" xmlns:xlink="http://www.w3.org/1999/xlink" viewBox="0 0 400 600" width="auto" style="width: auto; height: auto;"><rect width="400" height="600" fill="#000000"/><ellipse rx="4.666666666666668" ry="13.5" cx="16.666666666666668" cy="15" fill="hsl(246.3922357206962,40%, 36.06850856625516%)" transform="matrix(0.8128917391550037,-0.5824148181610367,0.5824148181610367,0.8128917391550037,-5.617751288072334,12.51353745611988)"/><ellipse rx="4.666666666666668" ry="13.5" cx="16.666666666666668" cy="45" fill="hsl(245.51345375481418,40%, 26.65596122666668%)" transform="matrix(0.039231923166611025,-0.9992301317537663,0.9992301317537663,0.039231923166611025,-28.952554801072978,59.88839882790859)"/><ellipse rx="4.666666666666668" ry="13.5" cx="16.666666666666668" cy="75" fill="hsl(269.28949189226836,40%, 21.012086008230476%)" transform="matrix(-0.4849620366712243,-0.8745352039727721,0.8745352039727721,-0.4849620366712243,-40.84077325613252,125.94773934421772)"/><ellipse rx="4.666666666666668" ry="13.5" cx="16.666666666666668" cy="105" fill="hsl(237.40752647103272,40%, 20.298450205761334%)" transform="matrix(-0.5440889793093406,-0.8390275219527187,0.8390275219527187,-0.5440889793093406,-62.36307372863945,176.11313472666626)"/><ellipse rx="4.666666666666668" ry="13.5" cx="16.666666666666668" cy="135" fill="hsl(261.3832643496853,40%, 23.8432333866667%)" transform="matrix(-0.23055559798595762,-0.973059153513977,0.973059153513977,-0.23055559798595762,-110.85372595354582,182.342658132007)"/><ellipse rx="4.666666666666668" ry="13.5" cx="16.666666666666668" cy="165" fill="hsl(276.66946241386773,40%, 29.528796393086424%)" transform="matrix(0.31166314114008997,-0.9501926575461906,0.9501926575461906,0.31166314114008997,-145.30950762353115,129.4121258532926)"/><ellipse rx="4.666666666666668" ry="13.5" cx="16.666666666666668" cy="195" fill="hsl(278.8549021669601,40%, 33.32502172641976%)" transform="matrix(0.6318228257102403,-0.7751128414053836,0.7751128414053836,0.6318228257102403,-145.01071789440735,84.71309622005867)"/><ellipse rx="4.666666666666668" ry="13.5" cx="16.666666666666668" cy="225" fill="hsl(235.4215370978526,40%, 31.159233333333344%)" transform="matrix(0.45693647779047775,-0.8894993284226989,0.8894993284226989,0.45693647779047775,-191.08629027793282,137.0142811628054)"/><ellipse rx="4.666666666666668" ry="13.5" cx="16.666666666666668" cy="255" fill="hsl(285.0501767526721,40%, 23.643708641975337%)" transform="matrix(-0.2492788852621467,-0.9684317411993792,0.9684317411993792,-0.2492788852621467,-226.12877945004013,334.70664460790897)"/><ellipse rx="4.666666666666668" ry="13.5" cx="16.666666666666668" cy="285" fill="hsl(278.4724653467747,40%, 15.749680007901267%)" transform="matrix(-0.8494842555991817,-0.5276139682467705,0.5276139682467705,-0.8494842555991817,-119.54524365097751,535.896578899351)"/><ellipse rx="4.666666666666668" ry="13.5" cx="16.666666666666668" cy="315" fill="hsl(267.39163587836896,40%, 13.158273039999996%)" transform="matrix(-0.9537590655562084,-0.300572195768917,0.300572195768917,-0.9537590655562084,-62.117590885147024,620.4436421985796)"/><ellipse rx="4.666666666666668" ry="13.5" cx="16.666666666666668" cy="345" fill="hsl(232.13295370571817,40%, 18.063784919506162%)" transform="matrix(-0.7112785532031713,-0.7029102501409432,0.7029102501409432,-0.7112785532031713,-213.98272735057296,602.106271579052)"/><ellipse rx="4.666666666666668" ry="13.5" cx="16.666666666666668" cy="375" fill="hsl(261.39396134106,40%, 28.223480246913564%)" transform="matrix(0.18961033105552377,-0.9818594208729754,0.9818594208729754,0.18961033105552377,-354.6907884737658,320.2604493793325)"/><ellipse rx="4.666666666666668" ry="13.5" cx="16.666666666666668" cy="405" fill="hsl(252.00621682907692,40%, 39.30005%)" transform="matrix(0.9525404204114869,-0.30441213425602437,0.30441213425602437,0.9525404204114869,-122.49592138809149,24.294665255896575)"/><ellipse rx="4.666666666666668" ry="13.5" cx="16.666666666666668" cy="435" fill="hsl(230.0597975403091,40%, 45.607519088395065%)" transform="matrix(0.9552222184326459,0.2958893600868653,-0.2958893600868653,0.9552222184326459,129.45816799012505,14.546845694048272)"/><ellipse rx="4.666666666666668" ry="13.5" cx="16.666666666666668" cy="465" fill="hsl(271.67893587198466,40%, 43.1024890893827%)" transform="matrix(0.9983045747618622,0.05820632276254524,-0.05820632276254524,0.9983045747618622,27.094197171616354,-0.1817326343900163)"/><ellipse rx="4.666666666666668" ry="13.5" cx="16.666666666666668" cy="495" fill="hsl(259.8743511466989,40%, 34.06093005333332%)" transform="matrix(0.6853169132744509,-0.7282449645414507,0.7282449645414507,0.6853169132744509,-355.2365393859431,167.90554388908623)"/><ellipse rx="4.666666666666668" ry="13.5" cx="16.666666666666668" cy="525" fill="hsl(274.0615377915238,40%, 25.45755905349793%)" transform="matrix(-0.07652593056848882,-0.9970675914654066,0.9970675914654066,-0.07652593056848882,-505.5183868476395,581.7939065810671)"/><ellipse rx="4.666666666666668" ry="13.5" cx="16.666666666666668" cy="555" fill="hsl(256.0632684868924,40%, 23.842084362139943%)" transform="matrix(-0.2306636740046314,-0.9730335397583606,0.9730335397583606,-0.2306636740046314,-519.5225535280883,699.2355645805503)"/><ellipse rx="4.666666666666668" ry="13.5" cx="16.666666666666668" cy="585" fill="hsl(230.54616706581425,40%, 30.731995440000063%)" transform="matrix(0.4198221464050908,-0.9076063934260393,0.9076063934260393,0.4198221464050908,-521.2801093532014,354.53081743252903)"/><ellipse rx="4.666666666666668" ry="13.5" cx="50" cy="15" fill="hsl(241.87738874413265,40%, 34.89352112000001%)" transform="matrix(0.7416458872817678,-0.670791605402184,0.670791605402184,0.7416458872817678,2.8558311853003318,37.414891001307595)"/><ellipse rx="4.666666666666668" ry="13.5" cx="50" cy="45" fill="hsl(276.69002823979247,40%, 26.0161631687243%)" transform="matrix(-0.022601769743601216,-0.9997445473742066,0.9997445473742066,-0.022601769743601216,6.141582392497199,96.00430557702634)"/><ellipse rx="4.666666666666668" ry="13.5" cx="50" cy="75" fill="hsl(264.47435586010624,40%, 20.067374634403304%)" transform="matrix(-0.5626928672756989,-0.8266660372345368,0.8266660372345368,-0.5626928672756989,16.134688335744613,158.535265724849)"/><ellipse rx="4.666666666666668" ry="13.5" cx="50" cy="105" fill="hsl(263.5771840724064,40%, 17.621623706666668%)" transform="matrix(-0.7406630771716138,-0.6718766301298743,0.6718766301298743,-0.7406630771716138,16.48610520490538,216.36345364838593)"/><ellipse rx="4.666666666666668" ry="13.5" cx="50" cy="135" fill="hsl(257.49641116127935,40%, 18.855402057613187%)" transform="matrix(-0.6554620760130121,-0.7552280893271333,0.7552280893271333,-0.6554620760130121,-19.18269062666988,261.2487836477508)"/><ellipse rx="4.666666666666668" ry="13.5" cx="50" cy="165" fill="hsl(278.2208473259696,40%, 23.287267991111126%)" transform="matrix(-0.28249176165810336,-0.9592697246318688,0.9592697246318688,-0.28249176165810336,-94.15491831597237,259.57462553293414)"/><ellipse rx="4.666666666666668" ry="13.5" cx="50" cy="195" fill="hsl(254.72522977540325,40%, 27.2822%)" transform="matrix(0.09961151100166676,-0.9950264051149421,0.9950264051149421,0.09961151100166676,-149.0107258355131,225.3270741870254)"/><ellipse rx="4.666666666666668" ry="13.5" cx="50" cy="225" fill="hsl(256.53273706295744,40%, 26.400489117037036%)" transform="matrix(0.014546425551736146,-0.9998941951545013,0.9998941951545013,0.014546425551736146,-175.70351659705224,271.72176257822434)"/><ellipse rx="4.666666666666668" ry="13.5" cx="50" cy="255" fill="hsl(255.95682193219565,40%, 20.665792954074085%)" transform="matrix(-0.5139592619181076,-0.8578145936556419,0.8578145936556419,-0.5139592619181076,-143.04476045201943,428.95034024478593)"/><ellipse rx="4.666666666666668" ry="13.5" cx="50" cy="285" fill="hsl(230.46074321652858,40%, 14.224783333333342%)" transform="matrix(-0.9177629433286647,-0.3971286691397465,0.3971286691397465,-0.9177629433286647,-17.293526281776423,566.4188717375596)"/><ellipse rx="4.666666666666668" ry="13.5" cx="50" cy="315" fill="hsl(279.6461004800984,40%, 12.303674879999981%)" transform="matrix(-0.9753083555736041,-0.2208474848131904,0.2208474848131904,-0.9753083555736041,29.198457236823963,633.26450593042)"/><ellipse rx="4.666666666666668" ry="13.5" cx="50" cy="345" fill="hsl(233.28439627717165,40%, 17.504827777777752%)" transform="matrix(-0.7482012044452931,-0.6634718966667787,0.6634718966667787,-0.7482012044452931,-141.4877466285959,636.303009417861)"/><ellipse rx="4.666666666666668" ry="13.5" cx="50" cy="375" fill="hsl(275.96515596481765,40%, 27.977360959999967%)" transform="matrix(0.16619948784441968,-0.9860921509880568,0.9860921509880568,0.16619948784441968,-328.09453220550347,361.9797981971293)"/><ellipse rx="4.666666666666668" ry="13.5" cx="50" cy="405" fill="hsl(279.8122631529889,40%, 39.42620056197529%)" transform="matrix(0.9561815906956967,-0.29277425709007804,0.29277425709007804,0.9561815906956967,-116.38265371894917,32.385168203929766)"/><ellipse rx="4.666666666666668" ry="13.5" cx="50" cy="435" fill="hsl(233.20704511793056,40%, 46.61754938271605%)" transform="matrix(0.9218300826096211,0.38759424505007695,-0.38759424505007695,0.9218300826096211,172.51199235447945,14.624202366768998)"/><ellipse rx="4.666666666666668" ry="13.5" cx="50" cy="465" fill="hsl(235.35735902937583,40%, 45.54386679999999%)" transform="matrix(0.9570247059400618,0.2900064003092658,-0.2900064003092658,0.9570247059400618,137.00174078532882,5.483192137265462)"/><ellipse rx="4.666666666666668" ry="13.5" cx="50" cy="495" fill="hsl(259.65960203632426,40%, 37.92679259259258%)" transform="matrix(0.9038696130832187,-0.42780804403937117,0.42780804403937117,0.9038696130832187,-206.9584625911653,68.97494311379103)"/><ellipse rx="4.666666666666668" ry="13.5" cx="50" cy="525" fill="hsl(266.7674977492647,40%, 30.138052338765416%)" transform="matrix(0.36705049611512053,-0.9302010176846959,0.9302010176846959,0.36705049611512053,-456.70805999566284,378.8085390931333)"/><ellipse rx="4.666666666666668" ry="13.5" cx="50" cy="555" fill="hsl(264.390636812644,40%, 28.218365013333337%)" transform="matrix(0.1891248167735019,-0.9819530557416629,0.9819530557416629,0.1891248167735019,-504.44018793526425,499.1333780730945)"/><ellipse rx="4.666666666666668" ry="13.5" cx="50" cy="585" fill="hsl(270.3874649646197,40%, 33.54580596707822%)" transform="matrix(0.6482201220805037,-0.7614530013926906,0.7614530013926906,0.6482201220805037,-427.8610124219743,243.86387756327258)"/><ellipse rx="4.666666666666668" ry="13.5" cx="83.33333333333334" cy="15" fill="hsl(265.22218224447624,40%, 37.37231768823046%)" transform="matrix(0.8796529619670745,-0.4756160915092682,0.4756160915092682,0.8796529619670745,2.894679056426142,41.439882206444295)"/><ellipse rx="4.666666666666668" ry="13.5" cx="83.33333333333334" cy="45" fill="hsl(260.47284087132476,40%, 28.867793415637873%)" transform="matrix(0.25035547150489024,-0.9681539845952007,0.9681539845952007,0.25035547150489024,18.9034517615449,114.41350726894855)"/><ellipse rx="4.666666666666668" ry="13.5" cx="83.33333333333334" cy="75" fill="hsl(258.6525355363706,40%, 22.69649194666667%)" transform="matrix(-0.33678250530102216,-0.9415824680415237,0.9415824680415237,-0.33678250530102216,40.779863592055804,178.72389820717922)"/><ellipse rx="4.666666666666668" ry="13.5" cx="83.33333333333334" cy="105" fill="hsl(274.4098783746964,40%, 19.342055703045265%)" transform="matrix(-0.6192225587842392,-0.7852155262682339,0.7852155262682339,-0.6192225587842392,52.48759095227871,235.45299973037064)"/><ellipse rx="4.666666666666668" ry="13.5" cx="83.33333333333334" cy="135" fill="hsl(230.58887832632183,40%, 19.161415637860088%)" transform="matrix(-0.6328384738959212,-0.7742838406922112,0.7742838406922112,-0.6328384738959212,31.54156237672484,284.9568511821091)"/><ellipse rx="4.666666666666668" ry="13.5" cx="83.33333333333334" cy="165" fill="hsl(287.27610802613214,40%, 22.42847632%)" transform="matrix(-0.36106086903811735,-0.9325422504366435,0.9325422504366435,-0.36106086903811735,-40.44772552915762,302.28690218927454)"/><ellipse rx="4.666666666666668" ry="13.5" cx="83.33333333333334" cy="195" fill="hsl(268.3870681064731,40%, 26.253514814814814%)" transform="matrix(0.00033975742118492623,-0.9999999422824457,0.9999999422824457,0.00033975742118492623,-111.69496360453243,278.2670807537231)"/><ellipse rx="4.666666666666668" ry="13.5" cx="83.33333333333334" cy="225" fill="hsl(281.58779700831906,40%, 26.47172887308642%)" transform="matrix(0.021431645129526628,-0.9997703159161319,0.9997703159161319,0.021431645129526628,-143.4009533535401,303.49207776505307)"/><ellipse rx="4.666666666666668" ry="13.5" cx="83.33333333333334" cy="255" fill="hsl(245.92417045581715,40%, 22.47802504%)" transform="matrix(-0.3565902433695398,-0.9342608834440477,0.9342608834440477,-0.3565902433695398,-125.18733164641992,423.7855902829698)"/><ellipse rx="4.666666666666668" ry="13.5" cx="83.33333333333334" cy="285" fill="hsl(255.7254535675336,40%, 17.442660493827162%)" transform="matrix(-0.7521747139663911,-0.6589637316799596,0.6589637316799596,-0.7521747139663911,-41.790095398068445,554.2834410340081)"/><ellipse rx="4.666666666666668" ry="13.5" cx="83.33333333333334" cy="315" fill="hsl(260.84386985713945,40%, 15.822622256790124%)" transform="matrix(-0.8457430074708138,-0.5335904471729446,0.5335904471729446,-0.8457430074708138,-14.269064475681603,625.8749205802212)"/><ellipse rx="4.666666666666668" ry="13.5" cx="83.33333333333334" cy="345" fill="hsl(263.2692515867954,40%, 20.370749999999994%)" transform="matrix(-0.5382119309654101,-0.8428095380134735,0.8428095380134735,-0.5382119309654101,-162.58495545493926,600.917248503646)"/><ellipse rx="4.666666666666668" ry="13.5" cx="83.33333333333334" cy="375" fill="hsl(277.23863132284606,40%, 29.735492810864173%)" transform="matrix(0.33058469409500785,-0.9437763294499975,0.9437763294499975,0.33058469409500785,-298.1315114199114,329.678771818824)"/><ellipse rx="4.666666666666668" ry="13.5" cx="83.33333333333334" cy="405" fill="hsl(252.29292125101992,40%, 39.988528767407395%)" transform="matrix(0.9706758530659518,-0.24039215518541104,0.24039215518541104,0.9706758530659518,-94.9151437944314,31.908960291562153)"/><ellipse rx="4.666666666666668" ry="13.5" cx="83.33333333333334" cy="435" fill="hsl(229.68236997563494,40%, 46.861283333333326%)" transform="matrix(0.9124432160110245,0.40920334499544225,-0.40920334499544225,0.9124432160110245,185.29985417018543,3.986920269309394)"/><ellipse rx="4.666666666666668" ry="13.5" cx="83.33333333333334" cy="465" fill="hsl(252.37941071740408,40%, 47.19171919506172%)" transform="matrix(0.8989094972240874,0.4381343581600721,-0.4381343581600721,0.8989094972240874,212.1566856071979,10.495885118632998)"/><ellipse rx="4.666666666666668" ry="13.5" cx="83.33333333333334" cy="495" fill="hsl(279.68025998112574,40%, 42.22687962962962%)" transform="matrix(0.999651513477035,-0.026397946948077202,0.026397946948077202,0.999651513477035,-13.03794319400069,2.3723298712785095)"/><ellipse rx="4.666666666666668" ry="13.5" cx="83.33333333333334" cy="525" fill="hsl(251.0435635174579,40%, 37.028748239999985%)" transform="matrix(0.8633751432928181,-0.5045625451260785,0.5045625451260785,0.8633751432928181,-253.50993079239868,113.7749310179168)"/><ellipse rx="4.666666666666668" ry="13.5" cx="83.33333333333334" cy="555" fill="hsl(239.60914038660817,40%, 36.13019958584363%)" transform="matrix(0.8163503935851467,-0.5775569538092119,0.5775569538092119,0.8163503935851467,-305.2399745913083,150.05528055681765)"/><ellipse rx="4.666666666666668" ry="13.5" cx="83.33333333333334" cy="585" fill="hsl(278.7268093213115,40%, 40.02142695473254%)" transform="matrix(0.9714354106448404,-0.2373041148932952,0.2373041148932952,0.9714354106448404,-136.44252462556761,36.48562884981561)"/><ellipse rx="4.666666666666668" ry="13.5" cx="116.66666666666667" cy="15" fill="hsl(230.13016531010297,40%, 42.60406226304528%)" transform="matrix(0.9999494075281999,0.010058945471666605,-0.010058945471666605,0.9999494075281999,0.15678663711030083,-1.1727847496852775)"/><ellipse rx="4.666666666666668" ry="13.5" cx="116.66666666666667" cy="45" fill="hsl(249.5981207127648,40%, 34.50989250666668%)" transform="matrix(0.7162665871329118,-0.6978267522508511,0.6978267522508511,0.7162665871329118,1.7000276047737657,94.18112456403502)"/><ellipse rx="4.666666666666668" ry="13.5" cx="116.66666666666667" cy="75" fill="hsl(260.2025404573485,40%, 27.94628600823046%)" transform="matrix(0.16323667821907406,-0.986586938330324,0.986586938330324,0.16323667821907406,23.628367033333788,177.8590584486268)"/><ellipse rx="4.666666666666668" ry="13.5" cx="116.66666666666667" cy="105" fill="hsl(265.1111393730678,40%, 23.994855761316877%)" transform="matrix(-0.2162697197403577,-0.9763336562484298,0.9763336562484298,-0.2162697197403577,39.3830998703024,241.613913646537)"/><ellipse rx="4.666666666666668" ry="13.5" cx="116.66666666666667" cy="135" fill="hsl(269.02322505632605,40%, 22.844561600000013%)" transform="matrix(-0.3232715399490936,-0.9463062461269827,0.9463062461269827,-0.3232715399490936,26.63033622325659,289.0440531241976)"/><ellipse rx="4.666666666666668" ry="13.5" cx="116.66666666666667" cy="165" fill="hsl(233.73748502216927,40%, 24.85433335308643%)" transform="matrix(-0.13450238200352174,-0.9909132702892715,0.9909132702892715,-0.13450238200352174,-31.142078544309896,302.7994410734947)"/><ellipse rx="4.666666666666668" ry="13.5" cx="116.66666666666667" cy="195" fill="hsl(281.12730068844775,40%, 28.3138458725926%)" transform="matrix(0.19817966570855225,-0.9801657105304421,0.9801657105304421,0.19817966570855225,-97.58660801354654,270.70763125959076)"/><ellipse rx="4.666666666666668" ry="13.5" cx="116.66666666666667" cy="225" fill="hsl(235.30252358598185,40%, 29.475516666666667%)" transform="matrix(0.30676529749332665,-0.9517851922854393,0.9517851922854393,0.30676529749332665,-133.27428641529863,267.01941367935393)"/><ellipse rx="4.666666666666668" ry="13.5" cx="116.66666666666667" cy="255" fill="hsl(237.34491509137024,40%, 27.16304938271605%)" transform="matrix(0.08814481976467997,-0.9961076702589194,0.9961076702589194,0.08814481976467997,-147.6243517001726,348.7356323318868)"/><ellipse rx="4.666666666666668" ry="13.5" cx="116.66666666666667" cy="285" fill="hsl(250.2610368904926,40%, 23.636241994074076%)" transform="matrix(-0.24997779455845726,-0.9682515697006072,0.9682515697006072,-0.24997779455845726,-130.120954864865,469.20635442699836)"/><ellipse rx="4.666666666666668" ry="13.5" cx="116.66666666666667" cy="315" fill="hsl(232.21638843087428,40%, 22.487352799999996%)" transform="matrix(-0.35574771078442935,-0.9345820275779103,0.9345820275779103,-0.35574771078442935,-136.22277264434862,536.095098632637)"/><ellipse rx="4.666666666666668" ry="13.5" cx="116.66666666666667" cy="345" fill="hsl(288.11860393527536,40%, 26.007316012839496%)" transform="matrix(-0.02345674783086097,-0.9997248526375642,0.9997248526375642,-0.02345674783086097,-225.5017870756999,469.72714398379424)"/><ellipse rx="4.666666666666668" ry="13.5" cx="116.66666666666667" cy="375" fill="hsl(268.59006544126845,40%, 33.19254567901232%)" transform="matrix(0.621845417446068,-0.7831400109822798,0.7831400109822798,0.621845417446068,-249.55946954716893,233.17430294784702)"/><ellipse rx="4.666666666666668" ry="13.5" cx="116.66666666666667" cy="405" fill="hsl(238.63255107386593,40%, 40.86698333333332%)" transform="matrix(0.9875668188849803,-0.1571998035539498,0.1571998035539498,0.9875668188849803,-62.215382644573566,23.375415407890898)"/><ellipse rx="4.666666666666668" ry="13.5" cx="116.66666666666667" cy="435" fill="hsl(233.75113727694188,40%, 46.06528051950617%)" transform="matrix(0.9411986072850079,0.3378537873766718,-0.3378537873766718,0.9411986072850079,153.82655998292176,-13.837669309223088)"/><ellipse rx="4.666666666666668" ry="13.5" cx="116.66666666666667" cy="465" fill="hsl(288.23821056796226,40%, 47.31993065185185%)" transform="matrix(0.8934105912239444,0.44924104386051156,-0.44924104386051156,0.8934105912239444,221.3325164020691,-2.8473799647888995)"/><ellipse rx="4.666666666666668" ry="13.5" cx="116.66666666666667" cy="495" fill="hsl(269.604268673618,40%, 45.67314191999999%)" transform="matrix(0.9533260707909522,0.3019427143520513,-0.3019427143520513,0.9533260707909522,154.90693533790233,-12.123055001268142)"/><ellipse rx="4.666666666666668" ry="13.5" cx="116.66666666666667" cy="525" fill="hsl(234.245207972099,40%, 44.55278559670782%)" transform="matrix(0.9803770310813945,0.19713162335868514,-0.19713162335868514,0.9803770310813945,105.78344863402802,-12.69663067824547)"/><ellipse rx="4.666666666666668" ry="13.5" cx="116.66666666666667" cy="555" fill="hsl(256.13629609531426,40%, 46.23123004115227%)" transform="matrix(0.9356580936555516,0.3529078233432336,-0.3529078233432336,0.9356580936555516,203.37039768545344,-5.462821312781898)"/><ellipse rx="4.666666666666668" ry="13.5" cx="116.66666666666667" cy="585" fill="hsl(276.16293150069305,40%, 49.78639600000002%)" transform="matrix(0.7620423129792463,0.6475272297202955,-0.6475272297202955,0.7620423129792463,406.5651595009718,63.66040354269478)"/><ellipse rx="4.666666666666668" ry="13.5" cx="150" cy="15" fill="hsl(269.6151292112714,40%, 47.59816666666667%)" transform="matrix(0.8810063657199331,0.47310441084495874,-0.47310441084495874,0.8810063657199331,24.945610680537953,-69.18075463101142)"/><ellipse rx="4.666666666666668" ry="13.5" cx="150" cy="45" fill="hsl(235.13115755511288,40%, 40.42032944032921%)" transform="matrix(0.9798614116813398,-0.19967877678374332,0.19967877678374332,0.9798614116813398,-5.964756813100507,30.85805194454434)"/><ellipse rx="4.666666666666668" ry="13.5" cx="150" cy="75" fill="hsl(245.2152027161149,40%, 33.94967124279835%)" transform="matrix(0.6774453276179795,-0.7355731289875728,0.7355731289875728,0.6774453276179795,-6.784785508631472,134.52756591855285)"/><ellipse rx="4.666666666666668" ry="13.5" cx="150" cy="105" fill="hsl(233.1577310888693,40%, 29.825736666666657%)" transform="matrix(0.33880491897293125,-0.9408566452333456,0.9408566452333456,0.33880491897293125,0.38931093645283,210.55397535785454)"/><ellipse rx="4.666666666666668" ry="13.5" cx="150" cy="135" fill="hsl(257.177779802211,40%, 27.98558043094651%)" transform="matrix(0.16698291523747458,-0.9859597892504514,0.9859597892504514,0.16698291523747458,-8.152013203780598,260.3512696589437)"/><ellipse rx="4.666666666666668" ry="13.5" cx="150" cy="165" fill="hsl(234.8930158843259,40%, 28.532850823045276%)" transform="matrix(0.21888379687492487,-0.9757509331102977,0.9757509331102977,0.21888379687492487,-43.8314775915554,275.24680836416474)"/><ellipse rx="4.666666666666668" ry="13.5" cx="150" cy="195" fill="hsl(276.04476858257124,40%, 30.70596701333334%)" transform="matrix(0.41753726237575417,-0.9086598013160705,0.9086598013160705,0.41753726237575417,-89.8192536681355,249.87919926802817)"/><ellipse rx="4.666666666666668" ry="13.5" cx="150" cy="225" fill="hsl(236.90895409418158,40%, 31.988877592098767%)" transform="matrix(0.5267266417171658,-0.8500347315876902,0.8500347315876902,0.5267266417171658,-120.2668133472227,233.99171089318162)"/><ellipse rx="4.666666666666668" ry="13.5" cx="150" cy="255" fill="hsl(284.0935133127211,40%, 31.27896790419754%)" transform="matrix(0.4672007696437539,-0.8841512545058589,0.8841512545058589,0.4672007696437539,-145.5386881402003,268.48648727916367)"/><ellipse rx="4.666666666666668" ry="13.5" cx="150" cy="285" fill="hsl(248.70669773562184,40%, 29.94004618666667%)" transform="matrix(0.34918017042945626,-0.9370556059161356,0.9370556059161356,0.34918017042945626,-169.43787666420292,326.04198739997304)"/><ellipse rx="4.666666666666668" ry="13.5" cx="150" cy="315" fill="hsl(256.95308115720405,40%, 30.224348765432104%)" transform="matrix(0.3747971783410704,-0.9271068304718566,0.9271068304718566,0.3747971783410704,-198.25823162911468,336.00490853047245)"/><ellipse rx="4.666666666666668" ry="13.5" cx="150" cy="345" fill="hsl(240.87686387505718,40%, 33.36108996641975%)" transform="matrix(0.6345214221673192,-0.7729052754450332,0.7729052754450332,0.6345214221673192,-211.83053527064578,242.02589661498035)"/><ellipse rx="4.666666666666668" ry="13.5" cx="150" cy="375" fill="hsl(235.0555375787842,40%, 38.33502983999999%)" transform="matrix(0.9200437105903146,-0.3918157355227139,0.3918157355227139,0.9200437105903146,-134.93745782895235,88.7559668018838)"/><ellipse rx="4.666666666666668" ry="13.5" cx="150" cy="405" fill="hsl(286.44393839254434,40%, 42.60708275259258%)" transform="matrix(0.999946427957747,0.010350904044688884,-0.010350904044688884,0.999946427957747,4.200151944155948,-1.5309388752982045)"/><ellipse rx="4.666666666666668" ry="13.5" cx="150" cy="435" fill="hsl(243.10344759379745,40%, 44.55841431209877%)" transform="matrix(0.9802696273768914,0.19766501370341294,-0.19766501370341294,0.9802696273768914,88.94383675096101,-21.067038927665408)"/><ellipse rx="4.666666666666668" ry="13.5" cx="150" cy="465" fill="hsl(263.33553400279294,40%, 44.997083333333336%)" transform="matrix(0.9710092509680303,0.23904190957759872,-0.23904190957759872,0.9710092509680303,115.50310015631634,-22.375586882949165)"/><ellipse rx="4.666666666666668" ry="13.5" cx="150" cy="495" fill="hsl(255.39881279558045,40%, 46.20587037300412%)" transform="matrix(0.9365203915527582,0.3506131147088888,-0.3506131147088888,0.9365203915527582,183.0754327150224,-21.169559185909634)"/><ellipse rx="4.666666666666668" ry="13.5" cx="150" cy="525" fill="hsl(236.95177633218668,40%, 49.293281099917714%)" transform="matrix(0.7920305223794598,0.6104814916271583,-0.6104814916271583,0.7920305223794598,351.69820365649576,17.611755208812724)"/><ellipse rx="4.666666666666668" ry="13.5" cx="150" cy="555" fill="hsl(248.914816565097,40%, 54.433215840000024%)" transform="matrix(0.4052747102186462,0.9141949514502868,-0.9141949514502868,0.4052747102186462,596.586988402654,192.9432979062517)"/><ellipse rx="4.666666666666668" ry="13.5" cx="150" cy="585" fill="hsl(286.94557250807514,40%, 59.17530766617285%)" transform="matrix(-0.041100525495282,0.9991550164033666,-0.9991550164033666,-0.041100525495282,740.6707579594722,459.1705601950116)"/><ellipse rx="4.666666666666668" ry="13.5" cx="183.33333333333334" cy="15" fill="hsl(237.99253373389627,40%, 48.89221341563786%)" transform="matrix(0.8150971789108694,0.5793242519794439,-0.5793242519794439,0.8150971789108694,42.58871240238065,-103.43589789462229)"/><ellipse rx="4.666666666666668" ry="13.5" cx="183.33333333333334" cy="45" fill="hsl(237.97027481767958,40%, 42.73951518847737%)" transform="matrix(0.9997319907736406,0.023150521025960547,-0.023150521025960547,0.9997319907736406,1.0909084682318735,-4.23220153372764)"/><ellipse rx="4.666666666666668" ry="13.5" cx="183.33333333333334" cy="75" fill="hsl(235.18924654259362,40%, 36.84846666666667%)" transform="matrix(0.8544515761942938,-0.5195310423247941,0.5195310423247941,0.8544515761942938,-12.280951980376187,106.16348417745326)"/><ellipse rx="4.666666666666668" ry="13.5" cx="183.33333333333334" cy="105" fill="hsl(259.01906956194165,40%, 33.23300884773663%)" transform="matrix(0.6249037856681124,-0.7807017731872151,0.7807017731872151,0.6249037856681124,-13.206050765774137,182.51375285670596)"/><ellipse rx="4.666666666666668" ry="13.5" cx="183.33333333333334" cy="135" fill="hsl(259.3888045111598,40%, 31.80595732477367%)" transform="matrix(0.5116148781687179,-0.8592148837377108,0.8592148837377108,0.5116148781687179,-26.456742014593004,223.45471125551575)"/><ellipse rx="4.666666666666668" ry="13.5" cx="183.33333333333334" cy="165" fill="hsl(285.26532021071347,40%, 31.520034640000002%)" transform="matrix(0.4876750589956232,-0.8730252211898666,0.8730252211898666,0.4876750589956232,-50.12292760526293,244.58823013089562)"/><ellipse rx="4.666666666666668" ry="13.5" cx="183.33333333333334" cy="195" fill="hsl(254.54895585094104,40%, 31.524791013662558%)" transform="matrix(0.48807639994981405,-0.8728009096077004,0.8728009096077004,0.48807639994981405,-76.34352265322502,259.8385930872134)"/><ellipse rx="4.666666666666668" ry="13.5" cx="183.33333333333334" cy="225" fill="hsl(261.6234009644678,40%, 31.80859938271605%)" transform="matrix(0.5118342988771604,-0.8590841929013278,0.8590841929013278,0.5118342988771604,-103.79690324041496,267.3360425756116)"/><ellipse rx="4.666666666666668" ry="13.5" cx="183.33333333333334" cy="255" fill="hsl(258.67963623055965,40%, 32.460100000000004%)" transform="matrix(0.564886355421971,-0.8251687133296334,0.8251687133296334,0.564886355421971,-130.6471915551155,262.2349016192896)"/><ellipse rx="4.666666666666668" ry="13.5" cx="183.33333333333334" cy="285" fill="hsl(240.01153808308155,40%, 33.93942248790123%)" transform="matrix(0.6767162706187783,-0.7362439059712566,0.7362439059712566,0.6767162706187783,-150.56083282191418,227.11390469522877)"/><ellipse rx="4.666666666666668" ry="13.5" cx="183.33333333333334" cy="315" fill="hsl(266.488782870572,40%, 36.849068206090536%)" transform="matrix(0.8544817841504418,-0.5194813572738465,0.5194813572738465,0.8544817841504418,-136.95828947226,141.07648145914234)"/><ellipse rx="4.666666666666668" ry="13.5" cx="183.33333333333334" cy="345" fill="hsl(268.1455247213827,40%, 40.996409253333326%)" transform="matrix(0.9894561880820248,-0.144832495891594,0.144832495891594,0.9894561880820248,-48.03417900657092,30.19023786216087)"/><ellipse rx="4.666666666666668" ry="13.5" cx="183.33333333333334" cy="375" fill="hsl(235.44779286517996,40%, 44.77272098765431%)" transform="matrix(0.9759647950682461,0.21792824228951269,-0.21792824228951269,0.9759647950682461,86.12954484773643,-30.94030698548346)"/><ellipse rx="4.666666666666668" ry="13.5" cx="183.33333333333334" cy="405" fill="hsl(256.03046202330574,40%, 45.67732037037037%)" transform="matrix(0.9532040361482677,0.30232774512216365,-0.30232774512216365,0.9532040361482677,131.02199633048934,-36.47438478895447)"/><ellipse rx="4.666666666666668" ry="13.5" cx="183.33333333333334" cy="435" fill="hsl(242.79921022953607,40%, 43.395452479999996%)" transform="matrix(0.9962561629247112,0.0864503200371831,-0.0864503200371831,0.9962561629247112,38.29225930796491,-14.220655319240564)"/><ellipse rx="4.666666666666668" ry="13.5" cx="183.33333333333334" cy="465" fill="hsl(254.17064479150022,40%, 41.18047587028806%)" transform="matrix(0.9918763946531965,-0.1272054154891855,0.1272054154891855,0.9918763946531965,-57.66119063948611,27.09846801172847)"/><ellipse rx="4.666666666666668" ry="13.5" cx="183.33333333333334" cy="495" fill="hsl(261.9370493309348,40%, 42.60910091325104%)" transform="matrix(0.9999443896313085,0.010545977663064716,-0.010545977663064716,0.9999443896313085,5.230454176902612,-1.9059019967707513)"/><ellipse rx="4.666666666666668" ry="13.5" cx="183.33333333333334" cy="525" fill="hsl(268.9918912750361,40%, 48.51163333333336%)" transform="matrix(0.8358533532632508,0.548952795637821,-0.548952795637821,0.8358533532632508,318.2937679157169,-14.464350658650233)"/><ellipse rx="4.666666666666668" ry="13.5" cx="183.33333333333334" cy="555" fill="hsl(235.6642701329575,40%, 56.72618888888892%)" transform="matrix(0.19438501282444623,0.9809253115243993,-0.9809253115243993,0.19438501282444623,692.109620555038,267.28002090402794)"/><ellipse rx="4.666666666666668" ry="13.5" cx="183.33333333333334" cy="585" fill="hsl(250.87956251723946,40%, 63.791924082963%)" transform="matrix(-0.46830771496140994,0.8835654384976943,-0.8835654384976943,-0.46830771496140994,786.0755140942966,696.9730253230456)"/><ellipse rx="4.666666666666668" ry="13.5" cx="216.66666666666666" cy="15" fill="hsl(244.24015266121185,40%, 45.33962220576133%)" transform="matrix(0.9625634674812062,0.27105639832063894,-0.27105639832063894,0.9625634674812062,12.17709468126452,-58.16733827193994)"/><ellipse rx="4.666666666666668" ry="13.5" cx="216.66666666666666" cy="45" fill="hsl(229.36617920622137,40%, 39.53925000000001%)" transform="matrix(0.9593238295316817,-0.2823079702960382,0.2823079702960382,0.9593238295316817,-3.8906884016513743,62.99715452367763)"/><ellipse rx="4.666666666666668" ry="13.5" cx="216.66666666666666" cy="75" fill="hsl(259.07033312313405,40%, 34.024056151440334%)" transform="matrix(0.6827168139282671,-0.7306830721863179,0.7306830721863179,0.6827168139282671,13.943459851137504,182.1109044796099)"/><ellipse rx="4.666666666666668" ry="13.5" cx="216.66666666666666" cy="105" fill="hsl(234.24063564603534,40%, 31.190127988477364%)" transform="matrix(0.4595908485465202,-0.8881307628566243,0.8881307628566243,0.4595908485465202,23.834919295746005,249.1712927137194)"/><ellipse rx="4.666666666666668" ry="13.5" cx="216.66666666666666" cy="135" fill="hsl(245.4200041778877,40%, 30.910716666666666%)" transform="matrix(0.43543850637500847,-0.9002184774630555,0.9002184774630555,0.43543850637500847,0.7921624048343574,271.26313827995)"/><ellipse rx="4.666666666666668" ry="13.5" cx="216.66666666666666" cy="165" fill="hsl(285.24649850487606,40%, 30.878295184526745%)" transform="matrix(0.43261508535817383,-0.9015787197580364,0.9015787197580364,0.43261508535817383,-25.827090677863737,288.9605667201738)"/><ellipse rx="4.666666666666668" ry="13.5" cx="216.66666666666666" cy="195" fill="hsl(285.463958289836,40%, 29.861787860082302%)" transform="matrix(0.34208161496028316,-0.9396702446636078,0.9396702446636078,0.34208161496028316,-40.68671438870484,331.88930461050325)"/><ellipse rx="4.666666666666668" ry="13.5" cx="216.66666666666666" cy="225" fill="hsl(240.78756259608156,40%, 28.978856346666667%)" transform="matrix(0.2607347812240073,-0.9654104691063118,0.9654104691063118,0.2607347812240073,-57.04322493162476,375.50694237751804)"/><ellipse rx="4.666666666666668" ry="13.5" cx="216.66666666666666" cy="255" fill="hsl(233.01700956116474,40%, 30.35036923753086%)" transform="matrix(0.38606282045380463,-0.9224724920902809,0.9224724920902809,0.38606282045380463,-102.2107633455953,356.423020590551)"/><ellipse rx="4.666666666666668" ry="13.5" cx="216.66666666666666" cy="285" fill="hsl(274.04394638541567,40%, 34.638322222222214%)" transform="matrix(0.724874395225785,-0.6888810573285148,0.6888810573285148,0.724874395225785,-136.72055368127684,227.6683596723348)"/><ellipse rx="4.666666666666668" ry="13.5" cx="216.66666666666666" cy="315" fill="hsl(282.1270151068267,40%, 40.90638165333333%)" transform="matrix(0.9881583376194631,-0.15343760879634152,0.15343760879634152,0.9881583376194631,-45.767153256946756,36.97493886468817)"/><ellipse rx="4.666666666666668" ry="13.5" cx="216.66666666666666" cy="345" fill="hsl(241.73307559257177,40%, 47.436081275720134%)" transform="matrix(0.8883104744418348,0.45924340060247193,-0.45924340060247193,0.8883104744418348,182.6383703943694,-60.96985040664043)"/><ellipse rx="4.666666666666668" ry="13.5" cx="216.66666666666666" cy="375" fill="hsl(287.70061931383077,40%, 51.425853039999986%)" transform="matrix(0.6503037367766642,0.7596743051692002,-0.7596743051692002,0.6503037367766642,360.6453880812568,-33.46000062382882)"/><ellipse rx="4.666666666666668" ry="13.5" cx="216.66666666666666" cy="405" fill="hsl(266.6442786061854,40%, 49.813414159999994%)" transform="matrix(0.7603485730385775,0.64951524037408,-0.64951524037408,0.7603485730385775,314.9781481550524,-43.66947405843689)"/><ellipse rx="4.666666666666668" ry="13.5" cx="216.66666666666666" cy="435" fill="hsl(253.50647460405656,40%, 43.28855967078188%)" transform="matrix(0.9970962323771047,0.07615184422837723,-0.07615184422837723,0.9970962323771047,33.75520189050988,-15.236427321418262)"/><ellipse rx="4.666666666666668" ry="13.5" cx="216.66666666666666" cy="465" fill="hsl(245.34416144190638,40%, 36.87628293893003%)" transform="matrix(0.8558454231151132,-0.5172316809060644,0.5172316809060644,0.8558454231151132,-209.2792399858406,179.09874236557454)"/><ellipse rx="4.666666666666668" ry="13.5" cx="216.66666666666666" cy="495" fill="hsl(242.26252498208908,40%, 36.027733333333344%)" transform="matrix(0.8105898351855073,-0.5856143091608436,0.5856143091608436,0.8105898351855073,-248.8402140215834,220.64113180827576)"/><ellipse rx="4.666666666666668" ry="13.5" cx="216.66666666666666" cy="525" fill="hsl(269.90484684695946,40%, 42.09753185942391%)" transform="matrix(0.9992433217260752,-0.038894523854127665,0.038894523854127665,0.9992433217260752,-20.255678064186924,8.824402922689387)"/><ellipse rx="4.666666666666668" ry="13.5" cx="216.66666666666666" cy="555" fill="hsl(268.9664935112981,40%, 51.954217400493874%)" transform="matrix(0.610672991455004,0.791882881180921,-0.791882881180921,0.610672991455004,523.8491841782784,44.50186561247301)"/><ellipse rx="4.666666666666668" ry="13.5" cx="216.66666666666666" cy="585" fill="hsl(247.11494436238996,40%, 61.42930000000005%)" transform="matrix(-0.2561071687542577,0.9666483942534008,-0.9666483942534008,-0.2561071687542577,837.6458636686757,525.3822084533152)"/><ellipse rx="4.666666666666668" ry="13.5" cx="250" cy="15" fill="hsl(243.17263209312563,40%, 40.206886666666676%)" transform="matrix(0.9755333160778056,-0.21985165276213012,0.21985165276213012,0.9755333160778056,2.8188960607838,55.329912296197634)"/><ellipse rx="4.666666666666668" ry="13.5" cx="250" cy="45" fill="hsl(260.31035352957525,40%, 33.73180761316873%)" transform="matrix(0.6618053355196774,-0.7496757284837807,0.7496757284837807,0.6618053355196774,50.81325656440893,202.637688090354)"/><ellipse rx="4.666666666666668" ry="13.5" cx="250" cy="75" fill="hsl(275.9882945847101,40%, 27.756389840329238%)" transform="matrix(0.145100210398921,-0.9894169641471632,0.9894169641471632,0.145100210398921,139.51867060510466,311.47172006717324)"/><ellipse rx="4.666666666666668" ry="13.5" cx="250" cy="105" fill="hsl(246.27803983023674,40%, 25.089623120000006%)" transform="matrix(-0.11193206600344277,-0.9937158610992385,0.9937158610992385,-0.11193206600344277,173.64284525312485,365.181826992924)"/><ellipse rx="4.666666666666668" ry="13.5" cx="250" cy="135" fill="hsl(258.07229561559865,40%, 25.47898230452676%)" transform="matrix(-0.07446097509944229,-0.9972239283065967,0.9972239283065967,-0.07446097509944229,133.99000781769792,394.3582084844262)"/><ellipse rx="4.666666666666668" ry="13.5" cx="250" cy="165" fill="hsl(270.7693509758461,40%, 26.091883488724285%)" transform="matrix(-0.01528364092787871,-0.9998831983386798,0.9998831983386798,-0.01528364092787871,88.84017718071289,417.49259509317386)"/><ellipse rx="4.666666666666668" ry="13.5" cx="250" cy="195" fill="hsl(256.2223151468626,40%, 25.57226666666668%)" transform="matrix(-0.06546582642625125,-0.9978548118691055,0.9978548118691055,-0.06546582642625125,71.78476270349657,457.2295338864386)"/><ellipse rx="4.666666666666668" ry="13.5" cx="250" cy="225" fill="hsl(275.5298817145187,40%, 24.857365612181077%)" transform="matrix(-0.13421192818086786,-0.9909526519132857,0.9909526519132857,-0.13421192818086786,60.58862941554935,502.9358416212632)"/><ellipse rx="4.666666666666668" ry="13.5" cx="250" cy="255" fill="hsl(244.8496610175689,40%, 26.59618610106996%)" transform="matrix(0.03345762276488391,-0.9994401370161811,0.9994401370161811,0.03345762276488391,-13.221645700063675,496.32833520672773)"/><ellipse rx="4.666666666666668" ry="13.5" cx="250" cy="285" fill="hsl(230.57737648338457,40%, 32.855083333333326%)" transform="matrix(0.5959726329990228,-0.8030047451392875,0.8030047451392875,0.5959726329990228,-127.8495127336605,315.89898166817284)"/><ellipse rx="4.666666666666668" ry="13.5" cx="250" cy="315" fill="hsl(270.0616587629481,40%, 42.35367262485595%)" transform="matrix(0.9998999661574836,-0.014144174711282497,0.014144174711282497,0.9998999661574836,-4.430406573949597,3.5675542640241247)"/><ellipse rx="4.666666666666668" ry="13.5" cx="250" cy="345" fill="hsl(233.13340445028226,40%, 51.82850843621396%)" transform="matrix(0.620250297327138,0.7844039575789995,-0.7844039575789995,0.620250297327138,365.5567890411039,-65.08733785825001)"/><ellipse rx="4.666666666666668" ry="13.5" cx="250" cy="375" fill="hsl(244.42477669184166,40%, 57.07117445333333%)" transform="matrix(0.16157128028068501,0.9868610446199912,-0.9868610446199912,0.16157128028068501,579.6800672645918,67.6955139160375)"/><ellipse rx="4.666666666666668" ry="13.5" cx="250" cy="405" fill="hsl(234.406941534562,40%, 54.19378458337448%)" transform="matrix(0.4263228433312647,0.9045710769497032,-0.9045710769497032,0.4263228433312647,509.7705723227572,6.196483958076101)"/><ellipse rx="4.666666666666668" ry="13.5" cx="250" cy="435" fill="hsl(253.16720693201938,40%, 44.1716769547325%)" transform="matrix(0.9869724570586194,0.1608893066915007,-0.1608893066915007,0.9869724570586194,73.24373407781576,-34.55534464947664)"/><ellipse rx="4.666666666666668" ry="13.5" cx="250" cy="465" fill="hsl(281.77857430231063,40%, 33.25875968%)" transform="matrix(0.6268451615486806,-0.7791438528558179,0.7791438528558179,0.6268451615486806,-269.01318392240046,368.30295900704584)"/><ellipse rx="4.666666666666668" ry="13.5" cx="250" cy="495" fill="hsl(283.87146723693957,40%, 28.47924320987656%)" transform="matrix(0.21382459090662653,-0.9768720716263792,0.9768720716263792,0.21382459090662653,-287.00782730536844,633.3748402839167)"/><ellipse rx="4.666666666666668" ry="13.5" cx="250" cy="525" fill="hsl(253.1164994858272,40%, 32.51404716246918%)" transform="matrix(0.5691817198798264,-0.8222117548141981,0.8222117548141981,0.5691817198798264,-323.9566035071424,431.73253145396836)"/><ellipse rx="4.666666666666668" ry="13.5" cx="250" cy="555" fill="hsl(284.313276276467,40%, 42.327476480000065%)" transform="matrix(0.9998609440478082,-0.016676107694117613,0.016676107694117613,0.9998609440478082,-9.220475782916708,4.2462028895262165)"/><ellipse rx="4.666666666666668" ry="13.5" cx="250" cy="585" fill="hsl(270.432820487447,40%, 53.17847551440336%)" transform="matrix(0.5129072364785334,0.8584440382272766,-0.8584440382272766,0.5129072364785334,623.9629506884203,70.33826160595697)"/><ellipse rx="4.666666666666668" ry="13.5" cx="283.33333333333337" cy="15" fill="hsl(236.4341906377213,40%, 38.41879948181071%)" transform="matrix(0.9231862564579723,-0.38435287937924334,0.38435287937924334,0.9231862564579723,15.998602363456314,110.05219640250414)"/><ellipse rx="4.666666666666668" ry="13.5" cx="283.33333333333337" cy="45" fill="hsl(249.95385918429122,40%, 30.652517963786018%)" transform="matrix(0.41283701075121826,-0.9108049201415188,0.9108049201415188,0.41283701075121826,125.37663739998771,284.48374694189715)"/><ellipse rx="4.666666666666668" ry="13.5" cx="283.33333333333337" cy="75" fill="hsl(254.99853948893565,40%, 23.187200000000008%)" transform="matrix(-0.2917574279271351,-0.9564923435393211,0.9564923435393211,-0.2917574279271351,294.261038222792,367.887990405199)"/><ellipse rx="4.666666666666668" ry="13.5" cx="283.33333333333337" cy="105" fill="hsl(237.0653852004461,40%, 19.437745884773662%)" transform="matrix(-0.6119330599120555,-0.7909095587908068,0.7909095587908068,-0.6119330599120555,373.66889584069986,393.34402891354557)"/><ellipse rx="4.666666666666668" ry="13.5" cx="283.33333333333337" cy="135" fill="hsl(274.7348406277764,40%, 19.245488197860094%)" transform="matrix(-0.626525177817038,-0.7794011813959028,0.7794011813959028,-0.626525177817038,355.62967372625747,440.41124946721436)"/><ellipse rx="4.666666666666668" ry="13.5" cx="283.33333333333337" cy="165" fill="hsl(238.77154173854538,40%, 19.988599226666672%)" transform="matrix(-0.5689713699624852,-0.8223573311906526,0.8223573311906526,-0.5689713699624852,308.85296018100274,491.88153648135415)"/><ellipse rx="4.666666666666668" ry="13.5" cx="283.33333333333337" cy="195" fill="hsl(266.58761856574756,40%, 20.299300039835394%)" transform="matrix(-0.5440200524602298,-0.8390722153194973,0.8390722153194973,-0.5440200524602298,273.8532973775161,538.8210548412034)"/><ellipse rx="4.666666666666668" ry="13.5" cx="283.33333333333337" cy="225" fill="hsl(261.0637250159134,40%, 20.692903909465024%)" transform="matrix(-0.5117094558081068,-0.8591585609400463,0.8591585609400463,-0.5117094558081068,235.0070334496477,583.5629038329032)"/><ellipse rx="4.666666666666668" ry="13.5" cx="283.33333333333337" cy="255" fill="hsl(245.05447042898578,40%, 23.279500000000002%)" transform="matrix(-0.28321198618871657,-0.9590573345108426,0.9590573345108426,-0.28321198618871657,119.01713502292512,598.9519872824949)"/><ellipse rx="4.666666666666668" ry="13.5" cx="283.33333333333337" cy="285" fill="hsl(237.69016445169763,40%, 30.730085999999993%)" transform="matrix(0.4196546179394486,-0.9076838665758555,0.9076838665758555,0.4196546179394486,-94.25869867538233,422.575547739686)"/><ellipse rx="4.666666666666668" ry="13.5" cx="283.33333333333337" cy="315" fill="hsl(230.38955102783996,40%, 42.49999931522632%)" transform="matrix(0.9999999999999978,-6.619322943592156e-8,6.619322943592156e-8,0.9999999999999978,-0.00002085086663328184,0.000018754750385596708)"/><ellipse rx="4.666666666666668" ry="13.5" cx="283.33333333333337" cy="345" fill="hsl(254.15262623813214,40%, 54.268285359999965%)" transform="matrix(0.4197975107628835,0.9076177884755712,-0.9076177884755712,0.4197975107628835,477.5188540199509,-56.988532935875924)"/><ellipse rx="4.666666666666668" ry="13.5" cx="283.33333333333337" cy="375" fill="hsl(263.2799290288856,40%, 60.97140041152262%)" transform="matrix(-0.2130839439458487,0.9770338954368382,-0.9770338954368382,-0.2130839439458487,710.0948527275797,178.0801888834123)"/><ellipse rx="4.666666666666668" ry="13.5" cx="283.33333333333337" cy="405" fill="hsl(265.6911063056143,40%, 57.9786158436214%)" transform="matrix(0.07449630043356564,0.9972212899962134,-0.9972212899962134,0.07449630043356564,666.1006893412723,92.28294602879708)"/><ellipse rx="4.666666666666668" ry="13.5" cx="283.33333333333337" cy="435" fill="hsl(287.7969749788368,40%, 45.879167999999986%)" transform="matrix(0.9471241137483546,0.32086743860415934,-0.32086743860415934,0.9471241137483546,154.55883796480043,-67.91143689544367)"/><ellipse rx="4.666666666666668" ry="13.5" cx="283.33333333333337" cy="465" fill="hsl(246.42082772738016,40%, 31.3417418548148%)" transform="matrix(0.4725571701845379,-0.8813000175349945,0.8813000175349945,0.4725571701845379,-260.3623623923745,494.9626052891209)"/><ellipse rx="4.666666666666668" ry="13.5" cx="283.33333333333337" cy="495" fill="hsl(283.3768393748024,40%, 22.527032035555557%)" transform="matrix(-0.3521604488471367,-0.9359396445646392,0.9359396445646392,-0.3521604488471367,-80.17796959128634,934.5023403656244)"/><ellipse rx="4.666666666666668" ry="13.5" cx="283.33333333333337" cy="525" fill="hsl(267.0047575300044,40%, 23.46670000000004%)" transform="matrix(-0.26581187305347337,-0.9640249209142906,0.9640249209142906,-0.26581187305347337,-147.46636056303868,937.6916470720321)"/><ellipse rx="4.666666666666668" ry="13.5" cx="283.33333333333337" cy="555" fill="hsl(237.70553431889044,40%, 31.736131069958894%)" transform="matrix(0.5058038147625039,-0.8626485384973991,0.8626485384973991,0.5058038147625039,-338.7476764062026,518.6959861279219)"/><ellipse rx="4.666666666666668" ry="13.5" cx="283.33333333333337" cy="585" fill="hsl(267.7598145586402,40%, 42.36401696131694%)" transform="matrix(0.9999136094462185,-0.01314433886641029,0.01314433886641029,0.9999136094462185,-7.664960911534763,3.7747680847780885)"/><ellipse rx="4.666666666666668" ry="13.5" cx="316.6666666666667" cy="15" fill="hsl(271.50604466920106,40%, 42.49999999999999%)" transform="matrix(1,-4.960524086056721e-16,4.960524086056721e-16,1,0,1.5631940186722204e-13)"/><ellipse rx="4.666666666666668" ry="13.5" cx="316.6666666666667" cy="45" fill="hsl(234.72148209422897,40%, 33.792355599999986%)" transform="matrix(0.6661817029316929,-0.7457894734300221,0.7457894734300221,0.6661817029316929,72.14860104755394,251.18848983570746)"/><ellipse rx="4.666666666666668" ry="13.5" cx="316.6666666666667" cy="75" fill="hsl(248.5507709271842,40%, 24.38883183539093%)" transform="matrix(-0.1789397321006271,-0.9838600369339918,0.9838600369339918,-0.1789397321006271,299.54141220776177,399.9761581135974)"/><ellipse rx="4.666666666666668" ry="13.5" cx="316.6666666666667" cy="105" fill="hsl(280.8549673991499,40%, 18.376366823045263%)" transform="matrix(-0.6897183064534287,-0.7240777981287744,0.7240777981287744,-0.6897183064534287,459.0492946381576,406.7117248032995)"/><ellipse rx="4.666666666666668" ry="13.5" cx="316.6666666666667" cy="135" fill="hsl(270.70955206499707,40%, 16.380798666666667%)" transform="matrix(-0.8157359088227831,-0.578424521486657,0.578424521486657,-0.8157359088227831,496.8957271045792,428.292112736579)"/><ellipse rx="4.666666666666668" ry="13.5" cx="316.6666666666667" cy="165" fill="hsl(245.54539016286796,40%, 16.25731995884775%)" transform="matrix(-0.822581709020743,-0.5686469308670484,0.5686469308670484,-0.822581709020743,483.32413064048075,480.7975100059373)"/><ellipse rx="4.666666666666668" ry="13.5" cx="316.6666666666667" cy="195" fill="hsl(268.2034218130044,40%, 16.74170216296296%)" transform="matrix(-0.7950644323525008,-0.6065249775631634,0.6065249775631634,-0.7950644323525008,450.1646993348239,542.1038071073349)"/><ellipse rx="4.666666666666668" ry="13.5" cx="316.6666666666667" cy="225" fill="hsl(256.57168121266676,40%, 18.052309199999993%)" transform="matrix(-0.712057849131979,-0.7021208012084101,0.7021208012084101,-0.712057849131979,384.17447168111016,607.5512696590927)"/><ellipse rx="4.666666666666668" ry="13.5" cx="316.6666666666667" cy="255" fill="hsl(276.34186376303626,40%, 21.693072187654323%)" transform="matrix(-0.42638513406733397,-0.9045417168082308,0.9045417168082308,-0.42638513406733397,221.03048777517242,650.1664193660035)"/><ellipse rx="4.666666666666668" ry="13.5" cx="316.6666666666667" cy="285" fill="hsl(263.846225988713,40%, 29.897942711111103%)" transform="matrix(0.34536356008804575,-0.9384689719768634,0.9384689719768634,0.34536356008804575,-60.16211781200559,483.7532263517481)"/><ellipse rx="4.666666666666668" ry="13.5" cx="316.6666666666667" cy="315" fill="hsl(256.650405779811,40%, 42.499999999999986%)" transform="matrix(1,-1.4881572258170162e-15,1.4881572258170162e-15,1,-4.547473508864641e-13,4.547473508864641e-13)"/><ellipse rx="4.666666666666668" ry="13.5" cx="316.6666666666667" cy="345" fill="hsl(272.18129506161443,40%, 55.102053591111094%)" transform="matrix(0.34536389553759506,0.9384688485288668,-0.9384688485288668,0.34536389553759506,531.073185718169,-71.33234584544584)"/><ellipse rx="4.666666666666668" ry="13.5" cx="316.6666666666667" cy="375" fill="hsl(231.02257961103535,40%, 62.60459634765432%)" transform="matrix(-0.36404030907550144,0.9313831936255954,-0.9313831936255954,-0.36404030907550144,781.2147952666987,216.57710473658054)"/><ellipse rx="4.666666666666668" ry="13.5" cx="316.6666666666667" cy="405" fill="hsl(239.75837392090855,40%, 60.294120240000005%)" transform="matrix(-0.1487078250838535,0.988881177269964,-0.988881177269964,-0.1487078250838535,764.2543545549736,152.0809631806505)"/><ellipse rx="4.666666666666668" ry="13.5" cx="316.6666666666667" cy="435" fill="hsl(237.9810914376355,40%, 48.06232968296295%)" transform="matrix(0.8588995761605672,0.5121440403550529,-0.5121440403550529,0.8588995761605672,267.46445841450776,-100.80026166087703)"/><ellipse rx="4.666666666666668" ry="13.5" cx="316.6666666666667" cy="465" fill="hsl(232.50383069165903,40%, 32.07175308641973%)" transform="matrix(0.5335193878033434,-0.8457878355935049,0.8457878355935049,0.5335193878033434,-245.57248309618365,484.74629914162085)"/><ellipse rx="4.666666666666668" ry="13.5" cx="316.6666666666667" cy="495" fill="hsl(258.17043147302945,40%, 20.655347039999995%)" transform="matrix(-0.5148251762457566,-0.8572951871459011,0.8572951871459011,-0.5148251762457566,55.33352126649356,1021.3152713682548)"/><ellipse rx="4.666666666666668" ry="13.5" cx="316.6666666666667" cy="525" fill="hsl(285.0219461594948,40%, 18.61270725530867%)" transform="matrix(-0.6729976954516217,-0.7396445781027576,0.7396445781027576,-0.6729976954516217,141.4691997898166,1112.5445730604113)"/><ellipse rx="4.666666666666668" ry="13.5" cx="316.6666666666667" cy="555" fill="hsl(247.10928229126162,40%, 24.31986031934159%)" transform="matrix(-0.18549518948051485,-0.9826451723178555,0.9826451723178555,-0.18549518948051485,-169.96126082267614,969.1208012394861)"/><ellipse rx="4.666666666666668" ry="13.5" cx="316.6666666666667" cy="585" fill="hsl(243.71362183502046,40%, 32.75326282666671%)" transform="matrix(0.5880403863229455,-0.8088315671715348,0.8088315671715348,0.5880403863229455,-342.7125891964265,497.1263701435025)"/><ellipse rx="4.666666666666668" ry="13.5" cx="350.00000000000006" cy="15" fill="hsl(288.44491236205323,40%, 51.20764439999998%)" transform="matrix(0.6661817029316955,0.7457894734300198,-0.7457894734300198,0.6661817029316955,128.0232494180732,-256.01904871250514)"/><ellipse rx="4.666666666666668" ry="13.5" cx="350.00000000000006" cy="45" fill="hsl(283.66960659454315,40%, 42.5021373840329%)" transform="matrix(0.9999999786563767,0.00020660892085760314,-0.00020660892085760314,0.9999999786563767,0.00930487170694505,-0.07231216390600537)"/><ellipse rx="4.666666666666668" ry="13.5" cx="350.00000000000006" cy="75" fill="hsl(231.83008993734492,40%, 31.79805761316871%)" transform="matrix(0.5109586147114932,-0.8596053129501422,0.8596053129501422,0.5109586147114932,106.69409127677193,337.5399720369146)"/><ellipse rx="4.666666666666668" ry="13.5" cx="350.00000000000006" cy="105" fill="hsl(275.5117511355387,40%, 23.43896666666666%)" transform="matrix(-0.26839529759991915,-0.9633088623210371,0.9633088623210371,-0.26839529759991915,342.790936317441,470.3396177065252)"/><ellipse rx="4.666666666666668" ry="13.5" cx="350.00000000000006" cy="135" fill="hsl(235.15933670043665,40%, 19.128454789465017%)" transform="matrix(-0.6353022345327847,-0.7722636018858138,0.7722636018858138,-0.6353022345327847,468.1002122071201,491.0580700550844)"/><ellipse rx="4.666666666666668" ry="13.5" cx="350.00000000000006" cy="165" fill="hsl(229.43817995247818,40%, 17.471919614156377%)" transform="matrix(-0.7503079509865959,-0.6610884802250725,0.6610884802250725,-0.7503079509865959,503.5282011350208,520.1817866114263)"/><ellipse rx="4.666666666666668" ry="13.5" cx="350.00000000000006" cy="195" fill="hsl(271.2823890645652,40%, 17.435445680000008%)" transform="matrix(-0.7526341025729775,-0.6584389931073104,0.6584389931073104,-0.7526341025729775,485.02634979475897,572.217304182621)"/><ellipse rx="4.666666666666668" ry="13.5" cx="350.00000000000006" cy="225" fill="hsl(230.96431812738092,40%, 18.97864259259258%)" transform="matrix(-0.6464187677787886,-0.7629828154443274,0.7629828154443274,-0.6464187677787886,404.5754517341489,637.4882157959318)"/><ellipse rx="4.666666666666668" ry="13.5" cx="350.00000000000006" cy="255" fill="hsl(270.8420964069801,40%, 22.905228395061705%)" transform="matrix(-0.31771657166768746,-0.948185730797364,0.948185730797364,-0.31771657166768746,219.41345192542354,667.8827410490717)"/><ellipse rx="4.666666666666668" ry="13.5" cx="350.00000000000006" cy="285" fill="hsl(282.324569751811,40%, 30.73025447999997%)" transform="matrix(0.4196694004380535,-0.9076770319535273,0.9076770319535273,0.4196694004380535,-55.572238448886935,483.0811911479862)"/><ellipse rx="4.666666666666668" ry="13.5" cx="350.00000000000006" cy="315" fill="hsl(230.5124077334289,40%, 42.499999999999986%)" transform="matrix(1,-1.4881572258170162e-15,1.4881572258170162e-15,1,-4.547473508864641e-13,5.115907697472721e-13)"/><ellipse rx="4.666666666666668" ry="13.5" cx="350.00000000000006" cy="345" fill="hsl(243.20637323152567,40%, 54.269913999999986%)" transform="matrix(0.4196546179394502,0.9076838665758548,-0.9076838665758548,0.4196546179394502,516.2718235011974,-117.47020557982478)"/><ellipse rx="4.666666666666668" ry="13.5" cx="350.00000000000006" cy="375" fill="hsl(234.2675447640703,40%, 61.533300000000004%)" transform="matrix(-0.2658118730534774,0.9640249209142895,-0.9640249209142895,-0.2658118730534774,804.5435135868845,137.27072042171173)"/><ellipse rx="4.666666666666668" ry="13.5" cx="350.00000000000006" cy="405" fill="hsl(232.47948933732414,40%, 60.63914876543209%)" transform="matrix(-0.18160014782194903,0.983372455538107,-0.983372455538107,-0.18160014782194903,811.8259080626635,134.36769058247285)"/><ellipse rx="4.666666666666668" ry="13.5" cx="350.00000000000006" cy="435" fill="hsl(255.99617583324994,40%, 50.605955507160466%)" transform="matrix(0.7084073122938425,0.7058038536935133,-0.7058038536935133,0.7084073122938425,409.08211997372024,-120.18853670817464)"/><ellipse rx="4.666666666666668" ry="13.5" cx="350.00000000000006" cy="465" fill="hsl(247.4207735113459,40%, 35.873306159999956%)" transform="matrix(0.801758027153354,-0.5976487813885023,0.5976487813885023,0.801758027153354,-208.52199086421547,301.3595968442703)"/><ellipse rx="4.666666666666668" ry="13.5" cx="350.00000000000006" cy="495" fill="hsl(285.5250150413402,40%, 23.864193020246876%)" transform="matrix(-0.22858365945948797,-0.9735242732608719,0.9735242732608719,-0.22858365945948797,-51.89022215078967,948.8824168222152)"/><ellipse rx="4.666666666666668" ry="13.5" cx="350.00000000000006" cy="525" fill="hsl(256.3818601246904,40%, 19.621580864197526%)" transform="matrix(-0.597782486002974,-0.8016583433284432,0.8016583433284432,-0.597782486002974,138.35325585313146,1119.4162333439867)"/><ellipse rx="4.666666666666668" ry="13.5" cx="350.00000000000006" cy="555" fill="hsl(231.71333610988236,40%, 22.321400000000004%)" transform="matrix(-0.3706936041195047,-0.928755216332534,0.928755216332534,-0.3706936041195047,-35.71636989717928,1085.799285302877)"/><ellipse rx="4.666666666666668" ry="13.5" cx="350.00000000000006" cy="585" fill="hsl(256.84097532610406,40%, 27.507813136131723%)" transform="matrix(0.12128639120200022,-0.9926175554105394,0.9926175554105394,0.12128639120200022,-273.1314980367963,861.4636154801743)"/><ellipse rx="4.666666666666668" ry="13.5" cx="383.33333333333337" cy="15" fill="hsl(289.0009791042215,40%, 60.61162394995884%)" transform="matrix(-0.1789830790415245,0.9838521522143535,-0.9838521522143535,-0.1789830790415245,466.7013197148775,-359.4585986900235)"/><ellipse rx="4.666666666666668" ry="13.5" cx="383.33333333333337" cy="45" fill="hsl(278.0466704571376,40%, 53.25042489711932%)" transform="matrix(0.5069244502053153,0.8619904882213254,-0.8619904882213254,0.5069244502053153,227.8018760111976,-308.24130481097893)"/><ellipse rx="4.666666666666668" ry="13.5" cx="383.33333333333337" cy="75" fill="hsl(236.86515962088055,40%, 42.615015679999985%)" transform="matrix(0.999938196558812,0.011117691429005745,-0.011117691429005745,0.999938196558812,0.8575181775451028,-4.257146680786008)"/><ellipse rx="4.666666666666668" ry="13.5" cx="383.33333333333337" cy="105" fill="hsl(286.66822537111614,40%, 32.9265589040329%)" transform="matrix(0.6015064382937333,-0.7988679519740338,0.7988679519740338,0.6015064382937333,68.87473840749544,348.07455502857107)"/><ellipse rx="4.666666666666668" ry="13.5" cx="383.33333333333337" cy="135" fill="hsl(288.14146520600127,40%, 26.85496008230451%)" transform="matrix(0.05844477315749446,-0.9982906432951122,0.9982906432951122,0.05844477315749446,226.16028578445426,509.78805570513236)"/><ellipse rx="4.666666666666668" ry="13.5" cx="383.33333333333337" cy="165" fill="hsl(262.1103100945172,40%, 23.81597602666665%)" transform="matrix(-0.23311862661648766,-0.9724483050139182,0.9724483050139182,-0.23311862661648766,312.24152810088754,576.2364432770007)"/><ellipse rx="4.666666666666668" ry="13.5" cx="383.33333333333337" cy="195" fill="hsl(277.95027930173916,40%, 22.955874897119322%)" transform="matrix(-0.3130707373097732,-0.9497298107568883,0.9497298107568883,-0.3130707373097732,318.1464960436054,620.1119070702266)"/><ellipse rx="4.666666666666668" ry="13.5" cx="383.33333333333337" cy="225" fill="hsl(267.74167712039184,40%, 23.93620299687241%)" transform="matrix(-0.2218016682852693,-0.975091800778712,0.975091800778712,-0.2218016682852693,248.9616756642281,648.6905853459987)"/><ellipse rx="4.666666666666668" ry="13.5" cx="383.33333333333337" cy="255" fill="hsl(251.2120492155634,40%, 26.944391359999976%)" transform="matrix(0.06707252457180797,-0.9977481027030641,0.9977481027030641,0.06707252457180797,103.19645155703216,620.3666324110129)"/><ellipse rx="4.666666666666668" ry="13.5" cx="383.33333333333337" cy="285" fill="hsl(250.35050027139118,40%, 33.062698148148115%)" transform="matrix(0.6119670069038705,-0.7908832925666833,0.7908832925666833,0.6119670069038705,-76.65574986177984,413.7613478144798)"/><ellipse rx="4.666666666666668" ry="13.5" cx="383.33333333333337" cy="315" fill="hsl(253.2217372177729,40%, 42.500008319999985%)" transform="matrix(0.9999999999996766,8.042477183995275e-7,-8.042477183995275e-7,0.9999999999996766,0.0002533381552893843,-0.00030829487309347314)"/><ellipse rx="4.666666666666668" ry="13.5" cx="383.33333333333337" cy="345" fill="hsl(269.6366353514086,40%, 52.08944999999999%)" transform="matrix(0.6002694776532421,0.7997978208259284,-0.7997978208259284,0.6002694776532421,429.1602898202053,-168.68215058511169)"/><ellipse rx="4.666666666666668" ry="13.5" cx="383.33333333333337" cy="375" fill="hsl(229.68702295015555,40%, 58.3959484345679%)" transform="matrix(0.034217497661072384,0.999414409969065,-0.999414409969065,0.034217497661072384,744.9970491303766,-20.940438951995986)"/><ellipse rx="4.666666666666668" ry="13.5" cx="383.33333333333337" cy="405" fill="hsl(258.5333598047779,40%, 58.865968718024696%)" transform="matrix(-0.0112098105267435,0.9999371681000534,-0.9999371681000534,-0.0112098105267435,792.6050008614955,26.23070530680593)"/><ellipse rx="4.666666666666668" ry="13.5" cx="383.33333333333337" cy="435" fill="hsl(252.33152306943674,40%, 51.81839999999999%)" transform="matrix(0.6210164624609125,0.783797520634337,-0.783797520634337,0.6210164624609125,486.2289518494555,-135.59789323547966)"/><ellipse rx="4.666666666666668" ry="13.5" cx="383.33333333333337" cy="465" fill="hsl(230.76462316365362,40%, 39.897468216296275%)" transform="matrix(0.96852226941974,-0.24892692429312796,0.24892692429312796,0.96852226941974,-103.68455577179196,110.05913739038533)"/><ellipse rx="4.666666666666668" ry="13.5" cx="383.33333333333337" cy="495" fill="hsl(250.6429783999272,40%, 29.067324691358%)" transform="matrix(0.2689810844871126,-0.9631454595169604,0.9631454595169604,0.2689810844871126,-196.53307009119635,731.0601421025374)"/><ellipse rx="4.666666666666668" ry="13.5" cx="383.33333333333337" cy="525" fill="hsl(269.80378002683864,40%, 23.83494874666664%)" transform="matrix(-0.23133477860918097,-0.9728742057459645,0.9728742057459645,-0.23133477860918097,-38.74726802725718,1019.385890610982)"/><ellipse rx="4.666666666666668" ry="13.5" cx="383.33333333333337" cy="555" fill="hsl(253.19394719669316,40%, 24.05386925168723%)" transform="matrix(-0.21069673282114654,-0.9775514752576943,0.9775514752576943,-0.21069673282114654,-78.4406300806611,1046.6647719641437)"/><ellipse rx="4.666666666666668" ry="13.5" cx="383.33333333333337" cy="585" fill="hsl(264.9337258220011,40%, 26.620639094650215%)" transform="matrix(0.03581993742220603,-0.999358260126502,0.999358260126502,0.03581993742220603,-215.02220538947472,947.132689829654)"/></svg>