<svg id="canvas" height="auto" xmlns="http://www.w3.org/2000/svg" version="1.1" xmlns:xlink="http://www.w3.org/1999/xlink" viewBox="0 0 400 600" width="auto" style="width: auto; height: auto;"><rect width="400" height="600" fill="#0f0625"/><line x1="8" y1="0" x2="8" y2="235.3181195189165" stroke-dasharray="8" stroke-linecap="round" stroke-width="4" stroke="#1f176d"/><circle r="4.253181195189164" cx="8.253181195189164" cy="329.57130071410563" fill="#8176b1"/><circle r="4.553181195189165" cx="8.553181195189165" cy="359.87130071410564" fill="#8676b1"/><circle r="4.853181195189165" cx="8.853181195189165" cy="390.17130071410566" fill="#8b76b1"/><circle r="5.153181195189164" cx="9.153181195189164" cy="420.47130071410567" fill="#9076b1"/><circle r="5.453181195189165" cx="9.453181195189165" cy="450.7713007141057" fill="#9576b1"/><circle r="5.753181195189164" cx="9.753181195189164" cy="481.07130071410563" fill="#9a76b1"/><circle r="6.053181195189165" cx="10.053181195189165" cy="511.37130071410564" fill="#9f76b1"/><circle r="6.3531811951891655" cx="10.353181195189165" cy="541.6713007141057" fill="#a476b1"/><circle r="6.653181195189165" cx="10.653181195189166" cy="571.9713007141057" fill="#a976b1"/><circle r="6.953181195189165" cx="10.953181195189165" cy="602.2713007141057" fill="#ae76b1"/><line x1="38" y1="0" x2="38" y2="295.9745982457018" stroke-dasharray="8" stroke-linecap="round" stroke-width="4" stroke="#1f176d"/><circle r="4.859745982457018" cx="38.85974598245702" cy="390.83434422815884" fill="#8176b1"/><circle r="5.159745982457018" cx="39.15974598245702" cy="421.13434422815885" fill="#8676b1"/><circle r="5.459745982457019" cx="39.45974598245702" cy="451.43434422815886" fill="#8b76b1"/><circle r="5.759745982457018" cx="39.75974598245702" cy="481.7343442281588" fill="#9076b1"/><circle r="6.059745982457018" cx="40.05974598245702" cy="512.0343442281588" fill="#9576b1"/><circle r="6.359745982457018" cx="40.35974598245702" cy="542.3343442281589" fill="#9a76b1"/><circle r="6.659745982457018" cx="40.65974598245702" cy="572.6343442281589" fill="#9f76b1"/><circle r="6.959745982457019" cx="40.95974598245702" cy="602.9343442281588" fill="#a476b1"/><line x1="68" y1="0" x2="68" y2="243.11022259503625" stroke-dasharray="8" stroke-linecap="round" stroke-width="4" stroke="#1f176d"/><circle r="4.331102225950362" cx="68.33110222595036" cy="337.4413248209866" fill="#8176b1"/><circle r="4.631102225950363" cx="68.63110222595036" cy="367.7413248209866" fill="#8676b1"/><circle r="4.9311022259503625" cx="68.93110222595037" cy="398.04132482098663" fill="#8b76b1"/><circle r="5.231102225950362" cx="69.23110222595037" cy="428.3413248209866" fill="#9076b1"/><circle r="5.531102225950363" cx="69.53110222595036" cy="458.6413248209866" fill="#9576b1"/><circle r="5.831102225950362" cx="69.83110222595036" cy="488.9413248209866" fill="#9a76b1"/><circle r="6.131102225950363" cx="70.13110222595036" cy="519.2413248209866" fill="#9f76b1"/><circle r="6.4311022259503625" cx="70.43110222595037" cy="549.5413248209866" fill="#a476b1"/><circle r="6.731102225950362" cx="70.73110222595037" cy="579.8413248209866" fill="#a976b1"/><line x1="98" y1="0" x2="98" y2="255.79498758088937" stroke-dasharray="8" stroke-linecap="round" stroke-width="4" stroke="#1f176d"/><circle r="4.457949875808893" cx="98.4579498758089" cy="350.25293745669825" fill="#8176b1"/><circle r="4.757949875808894" cx="98.75794987580889" cy="380.55293745669826" fill="#8676b1"/><circle r="5.057949875808894" cx="99.05794987580889" cy="410.85293745669827" fill="#8b76b1"/><circle r="5.3579498758088935" cx="99.3579498758089" cy="441.1529374566983" fill="#9076b1"/><circle r="5.657949875808893" cx="99.6579498758089" cy="471.45293745669824" fill="#9576b1"/><circle r="5.957949875808893" cx="99.9579498758089" cy="501.75293745669825" fill="#9a76b1"/><circle r="6.257949875808893" cx="100.25794987580889" cy="532.0529374566983" fill="#9f76b1"/><circle r="6.557949875808894" cx="100.55794987580889" cy="562.3529374566982" fill="#a476b1"/><circle r="6.8579498758088935" cx="100.8579498758089" cy="592.6529374566983" fill="#a976b1"/><line x1="128" y1="0" x2="128" y2="247.2544824437046" stroke-dasharray="8" stroke-linecap="round" stroke-width="4" stroke="#1f176d"/><circle r="4.372544824437046" cx="128.37254482443706" cy="341.62702726814166" fill="#8176b1"/><circle r="4.672544824437047" cx="128.67254482443704" cy="371.92702726814167" fill="#8676b1"/><circle r="4.972544824437046" cx="128.97254482443705" cy="402.2270272681416" fill="#8b76b1"/><circle r="5.2725448244370465" cx="129.27254482443703" cy="432.52702726814164" fill="#9076b1"/><circle r="5.572544824437046" cx="129.57254482443705" cy="462.82702726814165" fill="#9576b1"/><circle r="5.872544824437046" cx="129.87254482443706" cy="493.12702726814166" fill="#9a76b1"/><circle r="6.172544824437045" cx="130.17254482443704" cy="523.4270272681416" fill="#9f76b1"/><circle r="6.472544824437046" cx="130.47254482443705" cy="553.7270272681416" fill="#a476b1"/><circle r="6.772544824437046" cx="130.77254482443703" cy="584.0270272681416" fill="#a976b1"/><line x1="158" y1="0" x2="158" y2="269.5108592057324" stroke-dasharray="8" stroke-linecap="round" stroke-width="4" stroke="#1f176d"/><circle r="4.595108592057324" cx="158.59510859205733" cy="364.10596779778973" fill="#8176b1"/><circle r="4.895108592057324" cx="158.8951085920573" cy="394.40596779778974" fill="#8676b1"/><circle r="5.1951085920573234" cx="159.19510859205732" cy="424.70596779778975" fill="#8b76b1"/><circle r="5.495108592057324" cx="159.49510859205733" cy="455.0059677977897" fill="#9076b1"/><circle r="5.795108592057324" cx="159.79510859205732" cy="485.3059677977897" fill="#9576b1"/><circle r="6.095108592057324" cx="160.09510859205733" cy="515.6059677977897" fill="#9a76b1"/><circle r="6.3951085920573245" cx="160.3951085920573" cy="545.9059677977898" fill="#9f76b1"/><circle r="6.695108592057324" cx="160.69510859205732" cy="576.2059677977898" fill="#a476b1"/><circle r="6.995108592057324" cx="160.99510859205733" cy="606.5059677977898" fill="#a976b1"/><line x1="188" y1="0" x2="188" y2="242.95639247376067" stroke-dasharray="8" stroke-linecap="round" stroke-width="4" stroke="#1f176d"/><circle r="4.329563924737607" cx="188.3295639247376" cy="337.2859563984983" fill="#8176b1"/><circle r="4.629563924737607" cx="188.6295639247376" cy="367.5859563984983" fill="#8676b1"/><circle r="4.929563924737607" cx="188.9295639247376" cy="397.88595639849825" fill="#8b76b1"/><circle r="5.229563924737607" cx="189.22956392473762" cy="428.18595639849826" fill="#9076b1"/><circle r="5.529563924737607" cx="189.5295639247376" cy="458.4859563984983" fill="#9576b1"/><circle r="5.829563924737607" cx="189.8295639247376" cy="488.7859563984983" fill="#9a76b1"/><circle r="6.129563924737607" cx="190.1295639247376" cy="519.0859563984982" fill="#9f76b1"/><circle r="6.429563924737606" cx="190.4295639247376" cy="549.3859563984983" fill="#a476b1"/><circle r="6.729563924737606" cx="190.72956392473762" cy="579.6859563984982" fill="#a976b1"/><line x1="218" y1="0" x2="218" y2="267.453481810004" stroke-dasharray="8" stroke-linecap="round" stroke-width="4" stroke="#1f176d"/><circle r="4.574534818100041" cx="218.57453481810003" cy="362.02801662810407" fill="#8176b1"/><circle r="4.87453481810004" cx="218.87453481810005" cy="392.328016628104" fill="#8676b1"/><circle r="5.174534818100041" cx="219.17453481810003" cy="422.62801662810404" fill="#8b76b1"/><circle r="5.47453481810004" cx="219.47453481810004" cy="452.92801662810405" fill="#9076b1"/><circle r="5.77453481810004" cx="219.77453481810005" cy="483.22801662810406" fill="#9576b1"/><circle r="6.07453481810004" cx="220.07453481810003" cy="513.5280166281041" fill="#9a76b1"/><circle r="6.37453481810004" cx="220.37453481810005" cy="543.828016628104" fill="#9f76b1"/><circle r="6.67453481810004" cx="220.67453481810003" cy="574.128016628104" fill="#a476b1"/><circle r="6.9745348181000395" cx="220.97453481810004" cy="604.4280166281039" fill="#a976b1"/><line x1="248" y1="0" x2="248" y2="258.2641427204693" stroke-dasharray="8" stroke-linecap="round" stroke-width="4" stroke="#1f176d"/><circle r="4.482641427204693" cx="248.4826414272047" cy="352.74678414767396" fill="#8176b1"/><circle r="4.782641427204693" cx="248.78264142720468" cy="383.046784147674" fill="#8676b1"/><circle r="5.082641427204694" cx="249.0826414272047" cy="413.346784147674" fill="#8b76b1"/><circle r="5.3826414272046925" cx="249.3826414272047" cy="443.646784147674" fill="#9076b1"/><circle r="5.682641427204693" cx="249.6826414272047" cy="473.946784147674" fill="#9576b1"/><circle r="5.982641427204692" cx="249.9826414272047" cy="504.24678414767396" fill="#9a76b1"/><circle r="6.282641427204693" cx="250.28264142720468" cy="534.546784147674" fill="#9f76b1"/><circle r="6.582641427204693" cx="250.5826414272047" cy="564.846784147674" fill="#a476b1"/><circle r="6.8826414272046925" cx="250.8826414272047" cy="595.146784147674" fill="#a976b1"/><line x1="278" y1="0" x2="278" y2="242.7215639581076" stroke-dasharray="8" stroke-linecap="round" stroke-width="4" stroke="#1f176d"/><circle r="4.327215639581076" cx="278.3272156395811" cy="337.0487795976887" fill="#8176b1"/><circle r="4.627215639581076" cx="278.6272156395811" cy="367.3487795976887" fill="#8676b1"/><circle r="4.9272156395810764" cx="278.92721563958105" cy="397.64877959768864" fill="#8b76b1"/><circle r="5.227215639581075" cx="279.22721563958106" cy="427.94877959768866" fill="#9076b1"/><circle r="5.527215639581076" cx="279.5272156395811" cy="458.24877959768867" fill="#9576b1"/><circle r="5.827215639581075" cx="279.8272156395811" cy="488.5487795976887" fill="#9a76b1"/><circle r="6.127215639581076" cx="280.1272156395811" cy="518.8487795976887" fill="#9f76b1"/><circle r="6.427215639581076" cx="280.42721563958105" cy="549.1487795976886" fill="#a476b1"/><circle r="6.727215639581075" cx="280.72721563958106" cy="579.4487795976887" fill="#a976b1"/><line x1="308" y1="0" x2="308" y2="244.74606800468712" stroke-dasharray="8" stroke-linecap="round" stroke-width="4" stroke="#1f176d"/><circle r="4.347460680046871" cx="308.3474606800469" cy="339.093528684734" fill="#8176b1"/><circle r="4.647460680046871" cx="308.6474606800469" cy="369.393528684734" fill="#8676b1"/><circle r="4.947460680046872" cx="308.94746068004685" cy="399.69352868473396" fill="#8b76b1"/><circle r="5.247460680046871" cx="309.24746068004686" cy="429.993528684734" fill="#9076b1"/><circle r="5.547460680046871" cx="309.54746068004687" cy="460.293528684734" fill="#9576b1"/><circle r="5.847460680046872" cx="309.8474606800469" cy="490.593528684734" fill="#9a76b1"/><circle r="6.147460680046872" cx="310.1474606800469" cy="520.893528684734" fill="#9f76b1"/><circle r="6.447460680046872" cx="310.44746068004685" cy="551.193528684734" fill="#a476b1"/><circle r="6.7474606800468715" cx="310.74746068004686" cy="581.493528684734" fill="#a976b1"/><line x1="338" y1="0" x2="338" y2="283.49180835678584" stroke-dasharray="8" stroke-linecap="round" stroke-width="4" stroke="#1f176d"/><circle r="4.734918083567859" cx="338.73491808356783" cy="378.2267264403537" fill="#8176b1"/><circle r="5.034918083567858" cx="339.03491808356785" cy="408.5267264403537" fill="#8676b1"/><circle r="5.3349180835678585" cx="339.33491808356786" cy="438.8267264403537" fill="#8b76b1"/><circle r="5.634918083567858" cx="339.63491808356787" cy="469.1267264403537" fill="#9076b1"/><circle r="5.934918083567858" cx="339.9349180835679" cy="499.4267264403537" fill="#9576b1"/><circle r="6.234918083567859" cx="340.23491808356783" cy="529.7267264403538" fill="#9a76b1"/><circle r="6.534918083567859" cx="340.53491808356785" cy="560.0267264403537" fill="#9f76b1"/><circle r="6.834918083567859" cx="340.83491808356786" cy="590.3267264403538" fill="#a476b1"/><line x1="368" y1="0" x2="368" y2="274.48010512420217" stroke-dasharray="8" stroke-linecap="round" stroke-width="4" stroke="#1f176d"/><circle r="4.6448010512420215" cx="368.64480105124204" cy="369.1249061754442" fill="#8176b1"/><circle r="4.944801051242022" cx="368.944801051242" cy="399.42490617544416" fill="#8676b1"/><circle r="5.244801051242021" cx="369.244801051242" cy="429.7249061754442" fill="#8b76b1"/><circle r="5.544801051242022" cx="369.544801051242" cy="460.0249061754442" fill="#9076b1"/><circle r="5.8448010512420225" cx="369.84480105124203" cy="490.3249061754442" fill="#9576b1"/><circle r="6.144801051242022" cx="370.14480105124204" cy="520.6249061754442" fill="#9a76b1"/><circle r="6.444801051242022" cx="370.444801051242" cy="550.9249061754442" fill="#9f76b1"/><circle r="6.744801051242022" cx="370.744801051242" cy="581.2249061754442" fill="#a476b1"/><line x1="398" y1="0" x2="398" y2="309.4684804030133" stroke-dasharray="8" stroke-linecap="round" stroke-width="4" stroke="#1f176d"/><circle r="4.994684804030133" cx="398.99468480403016" cy="404.46316520704346" fill="#8176b1"/><circle r="5.294684804030133" cx="399.2946848040301" cy="434.7631652070434" fill="#8676b1"/><circle r="5.594684804030133" cx="399.5946848040301" cy="465.0631652070434" fill="#8b76b1"/><circle r="5.894684804030133" cx="399.89468480403013" cy="495.36316520704344" fill="#9076b1"/><circle r="6.194684804030133" cx="400.19468480403015" cy="525.6631652070433" fill="#9576b1"/><circle r="6.494684804030133" cx="400.49468480403016" cy="555.9631652070434" fill="#9a76b1"/><circle r="6.794684804030132" cx="400.7946848040301" cy="586.2631652070434" fill="#9f76b1"/></svg>