<?xml version="1.0" encoding="utf-8"?>
<!-- Generator: Adobe Illustrator 25.0.0, SVG Export Plug-In . SVG Version: 6.00 Build 0)  -->
<svg version="1.1" id="图层_1" xmlns="http://www.w3.org/2000/svg" xmlns:xlink="http://www.w3.org/1999/xlink" x="0px" y="0px"
	 viewBox="0 0 1075.41 189.44" style="enable-background:new 0 0 1075.41 189.44;" xml:space="preserve">
<style type="text/css">
	.st0{fill:#A32035;}
</style>
<path class="st0" d="M602.75,132.92c-5.11,0-9.36,1.74-12.75,5.23c-3.35,3.45-5.03,7.74-5.03,12.85c0,5.08,1.68,9.38,5.03,12.9
	c3.39,3.45,7.64,5.18,12.75,5.18c5.11,0,9.36-1.73,12.75-5.18c3.39-3.49,5.08-7.79,5.08-12.9c0-5.11-1.69-9.4-5.08-12.85
	C612.11,134.66,607.86,132.92,602.75,132.92z M611.41,160.26c-2.36,2.46-5.25,3.69-8.67,3.69s-6.31-1.23-8.67-3.69
	c-2.32-2.46-3.49-5.55-3.49-9.26c0-3.72,1.16-6.79,3.49-9.21c2.36-2.49,5.25-3.73,8.67-3.73s6.31,1.25,8.67,3.73
	c2.36,2.46,3.54,5.53,3.54,9.21C614.95,154.65,613.77,157.74,611.41,160.26z M573.32,158.81l-19.67-25.25h-4.78v34.87h5.38v-25.35
	l19.82,25.35h4.63v-34.87h-5.38V158.81z M854.99,168.43h5.48v-34.87h-5.48V168.43z M264.04,25.95c7.06-2.25,1.67-10.53-4.71-9.6
	c0,0-3.57,0.3-4.73,1.09c-1.48,0.8-0.93,1.68-1.92,2.78c-1.25,0.93-1.2,2.48-0.74,3.74C253.12,27.22,258.22,27.79,264.04,25.95z
	 M990.31,150.6c-1.83-1-3.95-1.86-6.38-2.59l-3.98-1.15c-0.2-0.07-0.53-0.18-1-0.35c-0.47-0.17-0.88-0.32-1.25-0.47
	c-0.36-0.15-0.65-0.29-0.85-0.42c-1.36-0.96-2.04-2.01-2.04-3.14c0-1.33,0.61-2.4,1.82-3.21c1.21-0.81,2.98-1.22,5.3-1.22
	c3.82,0,7.5,1.08,11.06,3.24v-5.48c-3.22-1.93-6.94-2.89-11.16-2.89c-3.88,0-6.96,0.86-9.24,2.59c-2.28,1.73-3.41,4.04-3.41,6.92
	c0,3.19,1.2,5.53,3.59,7.02c1.43,0.83,2.59,1.41,3.49,1.74c1.13,0.43,2.64,0.91,4.53,1.44l0.7,0.2c2.22,0.63,3.82,1.18,4.78,1.64
	c0.8,0.33,1.4,0.68,1.79,1.05c1.03,0.9,1.54,1.98,1.54,3.24c0,1.59-0.75,2.86-2.27,3.79c-1.51,0.93-3.45,1.39-5.8,1.39
	c-2.39,0-4.78-0.45-7.17-1.34c-2.39-0.93-4.27-1.99-5.63-3.19v5.93c3.42,2.49,7.79,3.73,13.1,3.73c3.82,0,7.01-0.93,9.56-2.79
	c2.56-1.86,3.83-4.4,3.83-7.62C995.04,154.95,993.4,152.26,990.31,150.6z M652.19,149.67c1.34-1.71,2.02-3.78,2.02-6.2
	c0-2.92-1.03-5.31-3.09-7.17c-2.03-1.83-4.83-2.74-8.42-2.74h-15.89v34.87h5.48v-14.74h8.17l10.51,14.74h6.62l-10.96-15.34
	C649,152.52,650.85,151.39,652.19,149.67z M632.3,148.85v-10.26h10.06c1.99,0,3.54,0.45,4.66,1.35c1.11,0.9,1.67,2.14,1.67,3.74
	c0,1.66-0.56,2.94-1.67,3.83c-1.11,0.9-2.67,1.34-4.66,1.34H632.3z M841.59,158.81l-19.67-25.25h-4.78v34.87h5.38v-25.35
	l19.82,25.35h4.63v-34.87h-5.38V158.81z M811.73,80.39c-1.76-0.5-11.49,2.6-16.64,2.88c-1.96,0.12-2.53-0.88-2.57-1.99
	c-0.14-3.83,11.8-3.39,11.64-7.42c-0.23-5.95-4.46-8.12-10.54-7.14c0,0-7.49,1.57-14.22,2.23c-5.66,0.55-12.95,5.15-11.33,9.05
	c1.74,4.16,6.87,3.83,10.73,1.26c1.31-0.87,1.09-1.35,1.83-2.49c0.92-1.41,2.29-0.96,2.94-1.63c1.93-1.98,2.89-3.27,4.21-1.6
	c0.49,0.62-0.56,4.14-0.92,5.08c-0.7,1.73-2.29,4.36-4.33,5.23c-6.82,2.9-14.45,4.83-15.06,9.45c-0.14,1.06,2.49,4.29,4.15,4.83
	c1.88,0.61,2.83-0.83,6.23-2.57c1.32-0.68,4.54,0.2,5.74-0.33c2.16-0.94,4.92-3.6,5.55-2.57c1.27,2.08,0.21,7.72-3.07,11.89
	c-1.97,2.5-4.82,4.7-6.82,4.4c-0.75-0.11-5.35,0.53-5.66,3.9c-0.35,3.87,1.95,5.6,3.58,6.09c7.12,2.22,11.1-4.02,16.16-9.58
	c2.66-2.92,4.55-6.85,4.92-8.85c0.6-3.29,1.43-2.89,1.37-4.29c-0.11-2.75-1.54-3.9-0.8-4.53c2.37-2.05,6.81-1.04,7.81-1.16
	c1.61-0.18,5.4,0.13,7.57-1.23C818.41,86.64,813.77,80.98,811.73,80.39z M882.63,161.06l-11.55-27.49H865l14.99,35.06h5.18
	l14.94-35.06h-5.93L882.63,161.06z M715.18,133.36l-15.24,35.06h5.83l3.74-8.67h16.54l3.78,8.67h5.88l-15.24-35.06H715.18z
	 M711.4,154.93l6.38-14.64l6.38,14.64H711.4z M960.69,149.67c1.34-1.71,2.02-3.78,2.02-6.2c0-2.92-1.03-5.31-3.09-7.17
	c-2.03-1.83-4.83-2.74-8.42-2.74h-15.89v34.87h5.48v-14.74h8.17l10.51,14.74h6.62l-10.96-15.34
	C957.49,152.52,959.34,151.39,960.69,149.67z M940.79,148.85v-10.26h10.06c1.99,0,3.54,0.45,4.66,1.35c1.11,0.9,1.67,2.14,1.67,3.74
	c0,1.66-0.56,2.94-1.67,3.83c-1.11,0.9-2.66,1.34-4.66,1.34H940.79z M745.52,133.56h-5.53v34.87h24.06v-5.03h-18.53V133.56z
	 M678.94,149.25l-11.31-15.69h-5.58v34.87h5.48v-26.5l9.71,13.15h3.19l9.71-13.15v26.5h5.48v-34.87h-5.48L678.94,149.25z
	 M279.26,26.52c0.99,0.01,1.47-0.66,2.27-0.76c3.12-0.39,6.49,0.8,7.89-0.18c5.4-3.79,3.29-8.44-2.68-8.63
	c-3.63-0.12-8.32,1.93-11.18,6.31C273.7,26.1,278.27,26.52,279.26,26.52z M804.14,153.88c0,3.22-0.82,5.7-2.46,7.45
	c-1.64,1.74-3.88,2.61-6.7,2.61c-2.82,0-5.05-0.87-6.67-2.61c-1.63-1.74-2.44-4.23-2.44-7.45v-20.32h-5.48v20.12
	c0,4.92,1.34,8.72,4.04,11.41c2.75,2.66,6.28,3.98,10.56,3.98c4.28,0,7.8-1.34,10.56-4.03c2.72-2.69,4.08-6.48,4.08-11.36v-20.12
	h-5.48V153.88z M909.98,152.34h15.74v-5.03h-15.74v-8.72h19.32v-5.03h-24.8v34.87h25.45v-5.03h-19.97V152.34z M618.76,81.36
	c-3.41-0.47-4.5,3.65-5.38,6.97l-0.74,2.51c-1.83,4.85-11.38,8.59-19.44,9.64L591,100.8c-3.9,0.61-6.97,1.09-10.86-1.66
	c-1.69-1.2-2.57-5.2-1.95-8.9c0.49-2.93,1.81-4.92,3.61-5.45c0.78-0.23,0.92,0.05,1.16,0.51c0.57,1.1,1.39,1.87,5.69,0.08
	c0.37-0.16,0.69-1.01,1.26-2.63c0.47-1.35,1.01-2.87,1.61-3.76l1.98-2.55l1.33-1.78c1.27-3.06,0.89-6.28-1.02-8.83
	c-2.13-2.84-5.78-4.28-9.78-3.86c-5.91,0.63-11.93,3.75-17.25,6.5c-5.41,2.8-10.09,5.23-13.62,4.68c-1.25-0.2-2.07-0.99-2.78-1.69
	c-0.67-0.65-1.3-1.28-2.15-1.18c-1.21,0.14-2.69,1.75-4.97,5.38c-0.45,0.74-0.82,2.18-1.24,3.86c-0.69,2.71-1.54,6.08-3.04,6.81
	c-0.41,0.19-0.84,0.18-1.33-0.03c-0.5-0.23-0.81-0.59-0.94-1.11c-0.58-2.26,2.43-6.42,2.46-6.45c0.02-0.04,1.3-3.84,1.3-3.84
	c0.31-1.19,0.61-2.31,1.13-3.18c2.98-5.08,8.08-5.39,13.47-5.71c2.79-0.17,7.3-2.83,8.1-3.64c1.59-1.59,0.02-3.87-1.23-5.69
	l-0.23-0.34c-2.08-3.05-4.46-4.1-7.27-3.22c-2.35,0.75-5.48,3.1-9.1,5.82c-2.75,2.08-5.59,4.21-8.45,5.92l-1,0.58
	c-5.87,3.36-12.64,7.57-12.79,10.24c-0.03,0.52,0.19,0.96,0.65,1.3c1.92,1.42,4.37-0.5,6.53-2.21c1.65-1.3,3.22-2.53,3.99-1.74
	c0.27,0.27,0.39,0.53,0.39,0.84c0,0.6-0.5,1.36-1.52,2.31l-0.45,0.44c-1.23,1.12-2.37,2.18-3.45,5.73
	c-1.51,4.98-0.67,6.29,0.73,8.46l1.41,2.39c0.6,1.2,0.36,2.91,0.21,4.04l-0.02,1.29c0.94,1.56,1.87,1.6,2.56,1.63
	c0.55,0.03,0.88,0.04,1.15,0.71c0.61,1.54-0.43,4.89-1.18,5.19c-0.05,0.01-0.2,0.07-0.38-0.35c-0.45-1.08-2.34-1.1-3.05-1.1
	c-1.93-0.03-2.78,1.41-3.53,2.69l-0.56,0.92c-3.16,4.5-1.03,7.43,1.48,9.69c1.49,1.35,2.78,2.51,6.09,1.49
	c2.84-0.88,4-5.17,5.22-9.71l0.41-1.46c1.17-4.24,2.52-7.79,3.7-9.74c1.44-2.39,1.56-4.39,1.64-6l0.33-2.27
	c1.03-2.75,2.81-3.57,5.05-4.61c1.18-0.55,2.5-1.16,3.88-2.15l3.17-2.34c3.87-2.9,6.93-5.18,11.94-6.91
	c1.66-0.58,3.43-1.61,5.13-2.6c2.34-1.36,4.75-2.77,7.01-3.12l0.46-0.07c2-0.32,5.7-0.92,6.7,0.51c0.32,0.43,0.93,3.71,0.05,5.07
	c-0.31,0.48-0.77,0.66-1.4,0.54c-1.06-0.2-1.09-0.83-1.05-1.85c0.03-0.68,0.06-1.38-0.47-1.83c-0.94-0.8-4.39-0.81-4.42-0.81
	c-1.31,0-2.53,1.31-3.94,2.82c-1.02,1.08-2.18,2.32-3.52,3.19c-4.94,3.23-7.07,10.25-6.6,15.53c0.53,6.07,3.25,8.74,4.87,10.35
	l0.96,1.05c3.59,5.33,9.02,9.9,24.4,7.38c10.11-1.66,18.43-5.96,22.85-11.77c2.02-2.66,3.06-10.29,1.35-14.44
	C621.2,82.5,620.15,81.56,618.76,81.36z M469.47,82.66c4.43-1.33,1.17-9.51,3.11-13.59c0.42-0.88,0.67-2.43,2.12-1.96
	c1.45,0.48,1.11,18.12,0.75,28.51c-0.25,7.11,0.57,12.84,1.14,18.32c0.25,2.3,0.57,4.46,3.99,4.47c4.85,0.01,4.72-10.35,4.62-16.76
	c-0.07-5.32,0.18-13.31,1.9-16.36c1.89-3.37,7.36-6.36,10.78-7.84c3.51-1.51,5.73-6.41,7.48-8.51c2.38-2.83,3.39-11.09,3.44-14
	c0.07-4-1.51-5.69-4.81-6.48c-5.08-1.22-11.96,4.77-14.5,2.44c-1.05-0.97,0.5-3.58,0.5-5.23c0.01-2.67-1.93-4.67-4.08-4.81
	c-1.39-0.1-1.68-1.82-0.13-2.25c2.21-0.62,3.36-0.58,5.69-0.78c4.4-0.41,6.85-1.13,8.79-5.47c0.6-1.32-0.28-3.84-2.28-4.81
	c-2.56-1.24-9.74-0.11-17.21,1.46c-8.06,1.69-16.59,3.08-17.74,6.33c-0.57,1.58-1.95,3.54-2.51,5.54c-0.83,2.89-1.13,5.45-2.45,6.78
	c-4.14,4.2-4.23,11.3-5.59,9.16c-0.93-1.47-3.25-0.9-4.72-0.96c-0.69-0.03-0.94-1.86-0.32-2.68c0.61-0.82,0.84-0.21,1.83-0.85
	c2.71-1.74,5.69-5.55,5.86-7.87c0.42-5.84,1.86-10.49-1.23-13.24c-2.66-2.37-6.57-2.87-10.42-2.39c-2.01,0.25-5.21,1.15-7.12,2.44
	c-3.29,2.19-3.68,6.89-4.83,12.66c-0.47,2.36-1.99,5.5-2.28,9.11c-0.36,4.59-0.7,10.97-0.79,14.24c-0.21,7.37,0.42,12.37,3.01,17.05
	c1.35,2.45,1.19,6.29,4.93,5.79c3.1-0.42-0.53-11.49-0.57-16.87c-0.01-2.19,0.11-4.31,1.61-5.54c0.48-0.38,0.76-1.48,1.79-1.19
	c1.04,0.29,0.03,3.67,1.55,3.4c2.7-0.47,3.49-4.05,5.84-3.21c1.85,0.67-0.07,3.97-1.85,6.2c-3.51,4.36-4.19,11.37,1.88,11.85
	c2.58,0.21,4.85-3.7,5.44-7.32c0.45-2.83-0.14-4.48,0.42-6.73c0.47-1.78,1.84-2.4,2.57-4.59c0.7-2.09,1.11-4.43,2.28-6.96
	c1.34-2.93,3.49-6.05,4.83-8.46c1.51-2.7,2.76-5.28,4.66-7.02c1.9-1.74,4.88-3.2,7.04-2.26c1.54,0.67-3.47,5.01-6.27,8.82
	c-3.92,5.33-5.59,11.48-5.27,18.94c0.12,3.02,0.09,11.39,2.36,12.75C466.36,82.95,467.67,83.2,469.47,82.66z M487.42,68.88
	c0.79-2.85-0.27-3.73,0.09-5.3c0.58-2.57,4.22-2.38,6.39-2.79c2.92-0.55,4.53-2,5.16,0.06c0,0-0.03,4.57-3.16,7.55
	c-2.37,2.26-3.77,3.33-5.57,3.4C489.39,71.85,487.11,70.01,487.42,68.88z M445.4,44.65c0.5,4.55-0.28,4.71-1.12,7.05
	c-0.59,1.66,2.6,2.59,0.27,3.77c-4.53,2.3-5.06,6.16-5.42,8.32c-0.17,1.02-1.43,0.93-1.78,0c-0.81-2.12-1.47-5.99-0.19-9.21
	c1.73-4.33,2.1-7.64,3.59-10.5c1.86-3.61,4.87-5.53,5.74-4.82C448.19,40.59,445.23,43.07,445.4,44.65z M475.33,47.86
	c2.02-4.02,2.7-3.53,3.79-2.94c1.21,0.68-1.4,4-3.19,8.5c-1.31,3.3-3.5,5-5.06,3.84C469.73,56.4,473.72,51.08,475.33,47.86z
	 M266.44,117.61c2.81,1.63,5.71,2.15,6.49,0.01c1.25-3.43,0.65-12.69,2.02-13.8c4.06-3.24,17.97,0.43,19.8-5.4
	c2.16-6.78-1.61-9.68-3.92-9.31c-4.13,0.67-10.49,2.61-14.3,2.41c-1.5-0.08-1.06-2.58-0.49-4.43c1.36-4.51,12.26-1.68,20.11-2.08
	c5.87-0.31,5.43,0.68,9.24,0.82c5.38,0.18,9.06-4.82,5.95-10.92c-1.18-2.32-16.11-0.78-21.54,0.09c-6.86,1.09-9.98,2.68-12.08,0.58
	c-2.33-2.36,2.22-3.4,2.34-3.4c6.92-0.07,25.93-14.52,14.78-24.78c-3.8-3.5-0.99-6.81-7.11-6.2c-0.54,0.06-6.53,1.63-7.82,0.76
	c-1.23-0.82-1.25-4.24,1.77-4.7c4.12-0.61,11.07-0.58,11.84-0.82c7.6-2.23,6.53-10.99-2.65-8.46c-5.19,1.42-9.06,2.41-11.74,0.98
	c-0.22-0.11-2.93-1.68-4-1.32c-1.06,0.37-0.13,1.87-2.37,2.06c-2.25,0.19-10.97-0.33-16.12,1.79c-2.16,0.89-7.13-0.62-9.31,0.98
	c-2.12,1.56-5.57,7.73,0.17,10.12c2.51,1.05,7.27-4.28,14.06-4.79c3.31-0.24,4.5-3.12,7.62-1.05c1.25,0.83,0.59,1.21,0.07,1.79
	c-0.3,0.34-10.33,3.56-17.89,8.17c-5.27,3.22-9.87,6.17-7.57,11.6c0.49,1.16,4.47,3.68,1.11,5.25c-3.19,1.49-7.64,4.72-8.01,7.36
	c-0.13,0.98-0.17,4.6-0.06,5.55c0.49,4.38,6.05,3.45,5.86,5.19c-0.09,0.78-4.19,1.37-6.88,3.05c-1.8,1.13-1.98,4.32-1.82,5.74
	c0.24,2.19,1.52,1.57,5.93,1.57c7.06,0.01,9.27-0.91,17.62-3.6c1.7-0.54,5.28-1.2,7.24-0.68c2.17,0.59,1.43,3.51-1.13,4.25
	c-5.21,1.52-27.17,8.26-17.25,14.89c2.39,1.61,7.95,1.47,9.54,0.99c1.77-0.55,5.94-3.57,7.95-1.89
	C266.14,107.87,262.11,115.09,266.44,117.61z M277.9,49.5c0.94-2.3,5.91-2.42,6.07-1.61c0.14,0.81-1.72,3.82-0.76,5.86
	c0.99,2.13,1.99,3.94,4.3,3.63c1.35-0.18,0.93,1.56-0.2,3.43c-0.84,1.41-7.5,8.88-9.59,7.09c-1.48-1.24-1.89-8.04,0.42-12.6
	C278.51,53.54,277.28,50.88,277.9,49.5z M244.94,75.11c-3.18-2.59,3.36-7.48,5.13-7.44C253.32,67.73,248.37,77.86,244.94,75.11z
	 M267.49,45.06c1.82,0.52,1.36,2.54-1.57,4.75c-4.32,3.23-10.53,7.94-12.12,5.09C252.16,51.99,264.79,44.27,267.49,45.06z
	 M260.32,76.4c-3.62,1.32-6.58,2.93-7.43,2.55c-1.81-0.82,0.99-1.42,1.38-3.56c1.38-7.62,1.39-11.55,3.71-12.98
	c2.4-1.48,4.07-1.45,5.44-2.37c2.73-1.84,3.8-3.76,4.12-3.18c0.28,0.5,0.38,4.19-0.32,8.01c-0.89,4.87,0.67,8.72-0.52,9.61
	C264.91,75.8,262.36,75.65,260.32,76.4z M280.76,133.36l-15.24,35.06h5.83l3.74-8.67h16.54l3.79,8.67h5.88l-15.24-35.06H280.76z
	 M276.98,154.93l6.38-14.64l6.38,14.64H276.98z M435.57,147.31h-18.18v-13.75h-5.48v34.87h5.48v-16.09h18.18v16.09h5.48v-34.87
	h-5.48V147.31z M487.02,158.81l-19.67-25.25h-4.78v34.87h5.38v-25.35l19.82,25.35h4.63v-34.87h-5.38V158.81z M325.65,150.6
	c-1.83-1-3.95-1.86-6.38-2.59l-3.98-1.15c-0.2-0.07-0.53-0.18-1-0.35c-0.47-0.17-0.88-0.32-1.25-0.47
	c-0.36-0.15-0.65-0.29-0.85-0.42c-1.36-0.96-2.04-2.01-2.04-3.14c0-1.33,0.61-2.4,1.82-3.21c1.21-0.81,2.98-1.22,5.3-1.22
	c3.82,0,7.5,1.08,11.06,3.24v-5.48c-3.22-1.93-6.94-2.89-11.16-2.89c-3.89,0-6.97,0.86-9.24,2.59c-2.27,1.73-3.41,4.04-3.41,6.92
	c0,3.19,1.2,5.53,3.59,7.02c1.43,0.83,2.59,1.41,3.49,1.74c1.13,0.43,2.64,0.91,4.53,1.44l0.7,0.2c2.22,0.63,3.82,1.18,4.78,1.64
	c0.8,0.33,1.39,0.68,1.79,1.05c1.03,0.9,1.54,1.98,1.54,3.24c0,1.59-0.75,2.86-2.27,3.79c-1.51,0.93-3.45,1.39-5.8,1.39
	c-2.39,0-4.78-0.45-7.17-1.34c-2.39-0.93-4.27-1.99-5.63-3.19v5.93c3.42,2.49,7.79,3.73,13.1,3.73c3.82,0,7.01-0.93,9.56-2.79
	c2.56-1.86,3.83-4.4,3.83-7.62C330.38,154.95,328.74,152.26,325.65,150.6z M449.07,168.43h5.48v-34.87h-5.48V168.43z M406.28,92.25
	c-2.2-1.77-0.85,0.7-7.08-0.16c-1.77-0.25-9.84-2.83-13.92-3.67c-1.95-0.42-5.65-2.3-8.51-4.5c-1.82-1.42-4.63-1.12-1.74-5.17
	c1.74-2.43-1.42-4.29,0.4-5.75c1.54-1.25,4.84-2.89,6.77-4.58c2.31-2.03,4.61-5.82,7.95-9.56c3.11-3.5,4.45-14,0.64-15.87
	c-2.61-1.28-6.15-0.62-11.12-0.87c-2.52-0.12-5.36,4.45-4.9,0.43c0.31-2.77,0-3.84,2.13-5.11c3.35-1.98,16.32-2,14.48-8.49
	c-1.47-5.22-8.87,0.75-12.76-1.72c-1.82-1.14-0.84-6.8-5.49-4.3c-0.64,0.34-3.51,1.45-4.06,2.35c-0.55,0.9-0.24,4.74-0.65,4.79
	c-2.71,0.35-7.23,0.63-13.12,2.14c-5.57,1.45-10.22-0.55-13.47,2.79c-1.37,1.39-2.63,2.26-3.53,4.06c-1.56,3.1,1.11,6.59,4.96,6.78
	c1.66,0.08,9.42-5.86,13.13-6.94c4.3-1.25,8.81-2.33,10.04-0.89c0.6,0.7,0.4,2.57-0.55,4.52c-3.45,7.11-7.45,6.77-10.49,8.48
	c-0.67,0.38-1.17-1.05-0.4-2.26c1.03-1.6,3.68-3.39,3.48-3.99c-0.26-0.77-5.55,0.13-9.85,2.12c-1.65,0.76-2.77,1.77-3.97,2.79
	c-3.57,3.02-5.89,12.8-4.35,21.12c1.27,6.88,1.06,12.75,5.46,13.66c5.25,1.08,5.14-3.96,4.11-11.89c-0.59-4.53,1.75-8.44,3.05-10.5
	c0.51-0.83,1.16-6.04,7.79-5.5c0.28,0.03,0.62,1.5-0.85,2.24c-1.91,0.98-3.81,3.41-3.68,4.76c0.17,1.66,1.81,3.03,2.6,5.01
	c0.8,1.98-3.05,3.51,1.47,5.86c0.35,0.18-1.52,2.34-2.69,2.26c-0.55-0.04-0.75-0.96-1.28-0.9c-1.64,0.2-2.13,4.54-2.31,5.04
	c-0.99,2.88-3.6,5.17-6.28,7.69c-4.55,4.3-10.38,10.74-13.47,14.74c-3.67,4.76-0.93,7.88,5.57,7.47c2.91-0.19,7.87-6.55,10.44-9.5
	c1.8-2.09,5.7-6.38,8.08-6.96c2.55-0.61-0.86,15.58,0.25,17.18c1.94,2.76,8,3.74,8.01-0.96c0-2.13-0.4-4.8-0.54-8
	c-0.1-2.49,0.5-5.47,0.57-7.73c0.09-3.24,0.13-6.4,0.95-6.54c1.86-0.31,3,2.46,6.38,5.29c7.92,6.67,22.12,10.94,31.95,10.48
	c5.89-0.28,8.41-4.34,3.13-9.33C407.8,93.53,406.93,92.77,406.28,92.25z M372.49,65.28c0.51-1.79,1.63-5.79-1-6.77
	c-2.57-0.95-2.37-7-0.15-6.45c4.1,1,10.29-0.43,10.66,0.49c1.48,3.73-2.27,8.94-5.38,11.74c-1.17,1.04-2.1,3.09-2.81,3.72
	C371.92,69.7,371.57,68.5,372.49,65.28z M386.7,160.31c-2.46-2.46-3.69-5.56-3.69-9.31c0-3.75,1.21-6.84,3.64-9.26
	c2.46-2.46,5.51-3.68,9.16-3.68c3.45,0,6.59,0.91,9.41,2.74v-5.53c-2.76-1.56-5.91-2.34-9.46-2.34c-5.31,0-9.7,1.71-13.15,5.13
	c-3.49,3.39-5.23,7.7-5.23,12.95c0,5.25,1.74,9.58,5.23,13c3.55,3.39,7.94,5.08,13.15,5.08c3.88,0,7.29-0.93,10.21-2.79v-5.53
	c-2.66,2.13-5.98,3.19-9.96,3.19C392.26,163.94,389.16,162.73,386.7,160.31z M1069.23,133.56l-9.96,14.1l-9.96-14.1h-6.38
	l13.5,19.08v15.79h5.48v-15.94l13.5-18.93H1069.23z M333.16,138.59h11.51v29.84h5.48v-29.84h11.56v-5.03h-28.54V138.59z
	 M242.28,152.34h15.74v-5.03h-15.74v-8.72h19.32v-5.03h-24.8v34.87h25.45v-5.03h-19.97V152.34z M511.96,133.36l-15.24,35.06h5.83
	l3.74-8.67h16.54l3.79,8.67h5.88l-15.24-35.06H511.96z M508.17,154.93l6.38-14.64l6.38,14.64H508.17z M1011.53,138.59h11.51v29.84
	h5.48v-29.84h11.55v-5.03h-28.54V138.59z M546.94,51.27c0.59-0.14,0.96-0.71,1.38-1.37c0.74-1.14,1.65-2.57,4.16-2.57
	c1.18,0,1.88,0.92,2.69,1.97c0.97,1.28,2.09,2.73,4.31,2.53c2.25-0.19,4.3-2.72,6.1-4.96l1.36-1.64
	c2.33-2.61,12.87-11.56,16.45-12.26c1.72-0.33,2.75-0.3,3.24,0.12c0.56,0.47,0.53,1.48,0.49,2.87l-0.02,1.19
	c0,1.23,0.78,1.92,1.47,2.53c0.61,0.54,1.14,1.01,1,1.73c-0.29,1.67-1.78,2.42-3.35,3.22c-1.56,0.78-3.15,1.6-3.6,3.36
	c-0.54,2.16-0.25,4.15,0.79,5.33c0.8,0.9,1.99,1.28,3.45,1.11c2.06-0.25,3.29-2.23,4.61-4.32c0.82-1.3,1.67-2.66,2.77-3.72
	c1.62-1.57,3.04-1.73,4.54-1.9c1.28-0.14,2.62-0.29,4.02-1.43c1.28-1.03,1.94-2.38,1.89-3.8c-0.07-1.71-1.17-3.4-3.09-4.73
	c-2.69-1.85-4.38-0.27-5.49,0.78c-0.4,0.38-0.78,0.74-1.01,0.71l-0.23-0.17c-1.36-1.94-0.17-3.68,1.1-5.54
	c0.61-0.89,1.24-1.81,1.6-2.77c0.47-1.31,0.38-2.39-0.24-3.12c-0.92-1.09-2.96-1.34-6.05-0.74c-1.33,0.25-2.5,1.2-3.74,2.19
	c-1.2,0.97-2.44,1.97-3.93,2.43c-3.99,1.23-6.8,2.99-9.07,4.42c-1.64,1.05-2.95,1.86-4.12,2.07c-0.83,0.15-2.31,0.03-3.87-0.09
	c-2.76-0.21-5.88-0.46-7.18,0.55l-2.15,2.28c-0.96,1.14-1.96,2.34-2.65,2.37l-0.44-0.19c-0.98-0.98,0.26-2.79,1.46-4.56l0.46-0.69
	c1.64-2.47,3.66-3.83,5.45-5.03c1.09-0.74,2.03-1.37,2.69-2.14c1.16-1.35,1.39-2.99,0.61-4.47c-0.84-1.62-2.67-2.63-4.45-2.44
	c-3.28,0.34-8.76,5.25-11.45,8.27c-1.62,1.82-2.85,3.83-4.03,5.77c-1.3,2.13-2.53,4.15-4.2,5.86c-1.77,1.82-1.28,4.94-0.01,7.23
	C541.86,49.64,544.19,51.87,546.94,51.27z M640.29,103.55c3.76-0.43,20.93-9.8,32.34-24.2c2.04-2.57,5.74-4.83,7.76-6.71
	c2.76-2.56,3.13-4.99,6.02-6.21c8.67-3.66,17.41-1.92,22.53-5.17c4.03-2.56,6.63-6.61,2.97-9.37c-1.35-1.02-1.83-1.64-5.09-1.53
	c-5.55,0.16-4.89,3.01-8.67,3.24c-1.63,0.1,0.01-6.01,3.17-6.72c6.61-1.49,14.18-4.97,15.28-10.85c0.9-4.82,0.42-9.44-7.62-7.4
	c-4.2,1.06-9.81,2.89-15.06,7.84c-6.75,6.35-12.85,14.18-19.35,17.4c-4.2,2.1-3.52-0.12-7.69,0.85
	c-11.63,2.72-19.34,6.81-17.63,12.96c1.19,4.28,5.42,5.46,7.79,5.93c2.92,0.57,5.52-0.72,5.21,0.92c-0.31,1.63-5.61,6.51-9.19,10.78
	c-1.42,1.71-5.69,5.11-10.2,7.13c-7.55,3.35-9.87,4.6-9.49,7.11C633.83,102.64,636.93,103.95,640.29,103.55z M756.17,84.38
	c4.26-1.29,0.17-8.78,2.1-12.89c1.29-2.75,11.37-3.73,17.88-5.62c2.98-0.85,7.04-2.62,11.56-2.93c7.49-0.53,14.29-2.57,18.89-3.09
	c2.5-0.27,5.19,0.35,7.74-0.15c2.91-0.58,1.88,2.95,3.15,3.83c3.32,2.27,7.99,2.69,10.06,0.43c1.46-1.29,2.58-4.49,1.26-8.39
	c-2.47-7.32-17.25-0.07-19.2-3.86c-0.43-0.84,4.11-5.45,3.24-4.49c2.49-2.75,5.22-6.65,6.26-11.05c0.85-3.61-0.53-4.52-0.99-6.65
	c-0.37-1.73-0.09-3.5-1.4-5.16c-3.26-4.1-7.82-2.98-10.23-0.43c-2.58,2.75-5.11,9.49-8.25,9.72c-3.49,0.25-5.03-1.51-4.41-3.42
	c0.89-2.72,4.47-6.56,3.96-8.38c-0.29-1.02-2.78-1.51-5.28-0.77c-2.5,0.74-4.67,6.4-7.41,5.14c-1.26-0.57-0.47-3.61-1.49-4.24
	c-2.83-1.77-6.41,6.97-9.49,7.31c-5.44,0.58-7.08,2.92-8.58,7.22c-1.09,3.15-1.68,8.56-2.84,12.29c-1.34,4.31-0.33,8.77-1.93,9.9
	c-1.75,1.22-1.5-0.36-3.58-0.1c-2.99,0.4-8.42,13.63-6.27,21.95C751.35,82.12,753.85,85.08,756.17,84.38z M799.22,46.26
	c0.1-8.96,3.78-11.58,5.27-12.36c3.31-1.74,3.08-3.17,4.9-3.58c2.3-0.52,3.96,1.91,4.14,4.73c0.17,2.65-0.99,5.75-3.19,5.94
	c-2.48,0.23-2.51-3.08-3.99-3.13c-1.77-0.04-3.68,2.5-2.08,3.85c1.37,1.15,0.79,3.38-0.36,5.16c-0.47,0.74-2.41,1.5-2.74,2.27
	c-0.47,1.12,0.85,2.88,0.46,4.03c-0.38,1.11-3.83,2.11-5.02,0.66C794.75,51.59,799.2,47.97,799.22,46.26z M790.93,45.57
	c3.9,0.35-0.83,11.36-3.82,7.21c0,0,0.04-1.23,0-1.32C786.17,49.44,790.62,45.55,790.93,45.57z M779.03,47.84
	c0.71-4.84,4.06-8.78,6.42-9.12c5.04-0.75,0.01,3.97-0.43,4.79c-0.99,1.75-2.79,7.85-4.07,7.1
	C779.64,49.85,778.71,50.02,779.03,47.84z M768.74,52.29c-0.06-4.47-0.18-10.18,0.52-10.43c1.21-0.43,4.25-4.2,4.98-3.15
	c1.23,1.78-1.31,7.23-1.65,9.4c-1.21,4.15,1.28,3.26-1.12,7.1c-1.36,2.19-0.81,4.61-2.48,3.94
	C767.71,58.62,768.79,55.4,768.74,52.29z M1001.36,168.43h5.48v-34.87h-5.48V168.43z M688.86,73.12c-2.4-0.62-4.26,5.17-3.96,8.6
	c0.82,9.78,16.55,15.12,26.46,17.16c3.82,0.78,9.12-0.58,12.94-0.84c4.03-0.27,7.36,0.79,8.29-1.38c0.93-2.17,2.2-2.08,1.86-4.34
	c-0.77-5.25-7.34-7.13-15.78-6.76c-4.9,0.22-9.75-1.7-12.86-2.57C696.37,80.34,691.27,73.74,688.86,73.12z M17.72,108.58
	c0.31-0.21,0.66-0.65,1.06-1.32c0.1-0.18,0.2-0.46,0.32-0.85c0.13-0.45,0.21-0.74,0.23-0.88l0.22-0.97l0.22-1.04l0.11-0.45
	c0.08-0.31,0.17-0.56,0.27-0.76c0.17-0.46,0.53-0.72,1.07-0.78c0.5-0.06,0.92,0.12,1.26,0.53c0.34,0.42,0.55,0.98,0.64,1.68
	c0.1,0.84,0.03,1.72-0.22,2.63c-0.26,0.9-0.62,1.64-1.05,2.23l2.97-0.36c0.83-1.4,1.14-3.05,0.91-4.92
	c-0.17-1.43-0.7-2.56-1.58-3.41c-0.88-0.85-1.99-1.19-3.32-1.02c-1.28,0.16-2.19,0.69-2.74,1.6c-0.51,0.85-0.89,1.81-1.12,2.89
	c-0.08,0.36-0.17,0.83-0.27,1.41c-0.07,0.43-0.17,0.79-0.29,1.07c-0.18,0.47-0.47,0.73-0.87,0.78c-0.91,0.11-1.45-0.54-1.63-1.95
	c-0.17-1.43,0.1-2.83,0.81-4.21l-2.77,0.34c-0.61,1.35-0.83,2.76-0.65,4.22c0.18,1.45,0.67,2.55,1.49,3.31
	c0.8,0.76,1.82,1.06,3.05,0.91C16.49,109.17,17.12,108.95,17.72,108.58z M19.02,80.85c2.04,0.51,3.89,0.31,5.54-0.6
	c1.63-0.92,2.69-2.33,3.16-4.22c0.33-1.32,0.3-2.56-0.11-3.71l-2.81-0.71c0.56,1.09,0.67,2.31,0.34,3.64
	c-0.3,1.21-0.97,2.1-1.99,2.67c-1.04,0.58-2.2,0.7-3.49,0.38c-1.29-0.33-2.25-0.98-2.88-1.95c-0.64-1-0.81-2.08-0.52-3.23
	c0.3-1.2,0.92-2.18,1.85-2.94l-2.81-0.71c-0.81,0.82-1.37,1.82-1.66,3.01c-0.48,1.9-0.22,3.65,0.78,5.24
	C15.42,79.28,16.95,80.33,19.02,80.85z M36.25,56.58l-11.83-7.43l-1.37,2.18l11.83,7.43L36.25,56.58z M13.52,93.94l11.39,0.3
	l0.07-2.59l-11.39-0.3l0.11-3.99l-2.57-0.07l-0.28,10.54l2.57,0.07L13.52,93.94z M29.93,68.56l-5.58-2.53l2.34-5.17l5.58,2.53
	l1.06-2.34l-12.73-5.76l-1.06,2.34l4.76,2.16l-2.34,5.17l-4.76-2.16l-1.07,2.36l12.73,5.76L29.93,68.56z M39.26,52.24l-6.88-5.77
	l10.99,0.87l1.37-1.64l-10.71-8.97l-1.62,1.93l6.85,5.74l-10.93-0.88l-1.42,1.69l10.71,8.97L39.26,52.24z M101.65,15.62l2.33,4.84
	l1.42,0.19l3.46-4.07l-1.26,9.48l2.53,0.34l1.84-13.85l-2.53-0.34l-4.38,5.26l-2.85-6.22l-2.55-0.34l-1.84,13.85l2.56,0.34
	L101.65,15.62z M113.38,27.38l2.21-2.66l5.04,1.71l0.14,3.46l2.6,0.88l-0.6-15.04l-2.35-0.8l-9.61,11.58L113.38,27.38z
	 M120.43,18.72l0.18,5.18l-3.49-1.18L120.43,18.72z M133.12,33.23l-5.62-3.01l5.38-10.05l-2.28-1.22L124,31.27l7.9,4.23
	L133.12,33.23z M144.2,43.54c1.48-0.15,2.85-0.95,4.12-2.42l5.31-6.12l-1.95-1.7l-5.38,6.19c-0.71,0.81-1.44,1.27-2.2,1.38
	c-0.76,0.1-1.47-0.13-2.12-0.69c-0.64-0.56-0.97-1.22-0.97-1.99c0-0.77,0.35-1.56,1.05-2.38l5.38-6.19l-1.94-1.68l-5.31,6.12
	c-1.27,1.47-1.88,2.94-1.83,4.41c0.05,1.47,0.67,2.72,1.86,3.75C141.4,43.26,142.73,43.7,144.2,43.54z M72.71,26.4
	c1.54,1.07,3.22,1.37,5.04,0.92c1.81-0.45,3.14-1.51,4-3.18c0.86-1.68,1.05-3.5,0.56-5.45c-0.49-1.96-1.51-3.48-3.06-4.54
	c-1.54-1.07-3.21-1.38-5.03-0.92c-1.82,0.46-3.16,1.52-4.02,3.19c-0.86,1.64-1.04,3.46-0.54,5.44
	C70.16,23.82,71.17,25.33,72.71,26.4z M72.5,17.77c0.51-1.02,1.3-1.66,2.39-1.93c1.07-0.27,2.07-0.07,3,0.59
	c0.93,0.66,1.56,1.63,1.88,2.9c0.32,1.28,0.22,2.43-0.28,3.45c-0.51,1.02-1.3,1.66-2.37,1.93c-1.08,0.27-2.08,0.08-3.02-0.58
	c-0.92-0.65-1.53-1.62-1.86-2.91C71.91,19.92,71.99,18.78,72.5,17.77z M88.14,25.22l-0.32-5.64l2.17-0.12l3.97,5.43l2.99-0.17
	l-4.21-5.74c0.8-0.32,1.41-0.84,1.83-1.55c0.42-0.71,0.61-1.53,0.55-2.46c-0.07-1.22-0.51-2.19-1.33-2.9
	c-0.81-0.73-1.88-1.05-3.22-0.98l-5.81,0.33l0.78,13.95L88.14,25.22z M90.58,13.61c0.59-0.03,1.05,0.09,1.4,0.37
	c0.34,0.28,0.53,0.69,0.56,1.22c0.03,0.54-0.11,0.97-0.42,1.28c-0.31,0.31-0.76,0.48-1.35,0.51l-3.08,0.17l-0.19-3.39L90.58,13.61z
	 M62.2,32.9l-3.84-8.12l9.62,5.39l1.93-0.91l-5.97-12.63l-2.27,1.07l3.82,8.08l-9.55-5.37l-2,0.94l5.97,12.63L62.2,32.9z
	 M47.28,43.39l-1.1-3.28l4.1-3.38l3.01,1.7l2.12-1.75l-13.1-7.4l-1.91,1.58l4.79,14.26L47.28,43.39z M48.13,35.42l-2.84,2.34
	l-1.66-4.92L48.13,35.42z M172.17,119.01l-10.82-3.58l-0.81,2.46l10.82,3.58l-1.25,3.79l2.44,0.81l3.31-10.01l-2.44-0.81
	L172.17,119.01z M157.38,125.41l-1.17,2.28l5.63,2.89l4.59,7.8l1.35-2.64l-2.99-5.06l5.85-0.51l1.39-2.72l-9.08,0.81L157.38,125.41z
	 M153.69,153.83c-0.37-0.52-0.21-0.58-0.4-0.76c-0.39-0.35-0.74-0.31-0.73-0.5c0.03-0.6,0.77-1.07,0.89-1.23
	c0.19-0.24,0.74-0.72,0.84-1.21c0.2-0.93-1.2-1.05-1.55-0.85c-0.3,0.18-1.18,1.93-1.83,2.67c-0.25,0.28-0.46,0.23-0.62,0.08
	c-0.54-0.49,1.11-2.07,0.54-2.59c-0.85-0.77-1.71-0.47-2.39,0.49c0,0-0.79,1.24-1.6,2.25c-0.68,0.85-1.03,2.47-0.27,2.77
	c0.8,0.32,1.45-0.43,1.61-1.3c0.05-0.3-0.04-0.33-0.1-0.59c-0.07-0.31,0.17-0.44,0.17-0.62c-0.01-0.53-0.06-0.84,0.34-0.8
	c0.15,0.02,0.5,0.63,0.57,0.81c0.15,0.33,0.29,0.9,0.14,1.3c-0.52,1.33-1.27,2.63-0.72,3.34c0.13,0.16,0.92,0.23,1.22,0.08
	c0.34-0.18,0.27-0.5,0.48-1.2c0.08-0.27,0.64-0.6,0.72-0.83c0.16-0.42,0.17-1.16,0.39-1.11c0.46,0.1,1.09,1.01,1.22,2.01
	c0.08,0.61,0,1.29-0.31,1.53c-0.12,0.09-0.65,0.8-0.22,1.3c0.48,0.57,1.03,0.48,1.31,0.32c1.26-0.68,0.94-2.06,0.85-3.5
	C154.21,154.93,153.92,154.14,153.69,153.83z M162.7,110.4l13.67,2.87l0.53-2.51l-13.67-2.87L162.7,110.4z M147.12,150.24
	c0.93-1.1,1.56-2.31,2.11-3.01c0.3-0.38,0.74-0.67,1.01-1.08c0.31-0.48,0.66,0.14,0.95,0.08c0.76-0.15,1.44-0.74,1.41-1.32
	c0.02-0.37-0.27-0.96-0.98-1.3c-1.34-0.64-2.32,2.36-3.1,2.12c-0.16-0.05-0.19-1.06-0.19-1.08c-0.05-0.71-0.22-1.59-0.68-2.31
	c-0.38-0.6-0.69-0.53-1.05-0.76c-0.29-0.18-0.49-0.46-0.9-0.5c-1-0.1-1.46,0.67-1.43,1.35c0.03,0.72,0.62,1.97,0.23,2.43
	c-0.43,0.51-0.88,0.49-1.06,0.15c-0.25-0.49-0.3-1.49-0.62-1.67c-0.18-0.1-0.58,0.18-0.81,0.62c-0.23,0.44,0.25,1.5-0.29,1.71
	c-0.25,0.1-0.56-0.42-0.78-0.36c-0.62,0.15,0.1,1.81-0.27,2.28c-0.65,0.83-0.55,1.36-0.16,2.15c0.29,0.57,0.95,1.38,1.31,2.04
	c0.41,0.76,1.16,1.22,1.1,1.59c-0.07,0.4-0.25,0.16-0.49,0.48c-0.34,0.46,0.74,2.98,2.17,3.8c0.27,0.16,1.01,0.21,1.23-0.2
	c0.39-0.76-1.18-1.2-1.49-2.02c-0.21-0.55,1.01-2.06,1.62-3.21C146.26,151.69,146.56,150.9,147.12,150.24z M144.09,152.3
	c-0.24,0.11-0.54-0.47-0.97-0.88c-0.62-0.59-1.42-1.34-1.36-1.47c0.1-0.22-0.01-1.15,0.23-1.11c0.41,0.07,0.82,1.15,1.07,1.49
	c0.41,0.72,0.62,0.26,0.83,1.11C144,151.91,144.41,152.16,144.09,152.3z M144.52,149.52c-0.28,0.08-0.38,0.23-0.64-0.11
	c-0.57-0.75-0.66-1.73-0.39-2.1c0.57-0.79,0.55,0.53,0.6,0.7C144.2,148.38,144.8,149.44,144.52,149.52z M145.38,144.05
	c0.2-0.69-0.02-0.85,0.17-1.15c0.24-0.39,0.79-0.29,1.2,0.06c0.39,0.33,0.66,0.91,0.39,1.24c-0.3,0.37-0.76-0.07-0.96,0.13
	c-0.24,0.24-0.15,0.84,0.25,0.8c0.34-0.03,0.57,0.35,0.66,0.74c0.04,0.16-0.12,0.53-0.06,0.68c0.09,0.21,0.51,0.27,0.61,0.48
	c0.1,0.2-0.22,0.81-0.58,0.78c-0.56-0.05-0.46-1.14-0.69-1.37C145.16,145.21,145.29,144.35,145.38,144.05z M145.65,148.96
	c0,0-0.17-0.17-0.18-0.18c-0.4-0.14-0.34-1.27-0.3-1.31C145.74,146.98,146.62,149.11,145.65,148.96z M98.49,80.92l18.7,14.02v-5.91
	l-18.7-14.02V80.92z M94.72,36.43c-32.19,0.06-58.23,26.1-58.29,58.29c0.06,32.19,26.1,58.23,58.29,58.29
	c32.19-0.06,58.23-26.09,58.29-58.29C152.95,62.53,126.91,36.49,94.72,36.43z M131.53,90.7c0.92,0.69,1.45,1.76,1.45,2.91
	c0,2.99-3.42,4.7-5.81,2.91l-2.44-1.83v5.91l6.79,5.1c0.92,0.69,1.45,1.76,1.45,2.91c0,2.99-3.42,4.7-5.81,2.91l-2.44-1.83v5.91
	l6.79,5.1c0.92,0.69,1.45,1.76,1.45,2.91c0,2.99-3.42,4.7-5.81,2.91l-28.68-21.51v5.9l29.39,22.05c0.91,0.69,1.45,1.76,1.45,2.91
	c0,2.99-3.42,4.7-5.81,2.91l-25.03-18.78v20.04c0,2.08-1.69,3.77-3.77,3.77c-2.08,0-3.77-1.69-3.77-3.77v-20.04l-25.03,18.78
	c-2.39,1.8-5.81,0.09-5.81-2.91c0-1.14,0.54-2.22,1.45-2.91l29.39-22.05v-5.9l-28.67,21.51c-2.4,1.8-5.82,0.09-5.82-2.91
	c0-1.14,0.54-2.22,1.46-2.91l6.8-5.1v-5.91l-2.44,1.83c-2.39,1.8-5.81,0.09-5.81-2.91c0-1.14,0.54-2.22,1.45-2.91l6.8-5.1v-5.9
	l-2.44,1.83c-2.4,1.8-5.81,0.09-5.81-2.91c0-1.14,0.54-2.22,1.45-2.91l33.04-24.77v-5.9L62.28,81.54c-2.39,1.8-5.81,0.09-5.81-2.91
	c0-1.14,0.54-2.22,1.45-2.91l6.8-5.1v-8.47c0-2.08,1.69-3.77,3.77-3.77c2.08,0,3.77,1.69,3.77,3.77v2.81l18.7-14.02v-7.11
	c0-2.08,1.69-3.77,3.77-3.77c2.08,0,3.77,1.69,3.77,3.77v7.11l18.7,14.02v-2.81c0-2.08,1.69-3.77,3.77-3.77s3.77,1.69,3.77,3.77
	v8.46l6.79,5.1c0.92,0.69,1.45,1.76,1.45,2.91c0,2.99-3.42,4.7-5.81,2.91L98.49,60.03v5.9L131.53,90.7z M94.72,30.6
	C59.31,30.67,30.67,59.31,30.6,94.72c0.06,35.42,28.71,64.05,64.12,64.12c35.41-0.07,64.05-28.7,64.12-64.12
	C158.77,59.31,130.13,30.67,94.72,30.6z M94.72,156.65c-34.2-0.06-61.87-27.72-61.93-61.93c0.06-34.2,27.73-61.87,61.93-61.93
	c34.2,0.06,61.87,27.73,61.93,61.93C156.59,128.93,128.92,156.59,94.72,156.65z M174.82,97.04c-0.66-0.06-1.32,0.03-1.99,0.26
	c-0.35,0.14-0.79,0.5-1.32,1.07c-0.13,0.16-0.3,0.41-0.49,0.77c-0.22,0.41-0.36,0.68-0.41,0.81l-0.42,0.9l-0.43,0.97l-0.2,0.42
	c-0.15,0.29-0.29,0.52-0.42,0.68c-0.26,0.41-0.67,0.59-1.21,0.54c-0.5-0.04-0.88-0.31-1.12-0.78c-0.25-0.48-0.34-1.07-0.27-1.77
	c0.07-0.85,0.33-1.69,0.76-2.53c0.45-0.83,0.94-1.48,1.49-1.96l-2.98-0.26c-1.11,1.2-1.74,2.74-1.91,4.63
	c-0.13,1.43,0.15,2.65,0.84,3.66c0.69,1.01,1.7,1.57,3.04,1.69c1.29,0.11,2.29-0.22,3.01-1c0.68-0.72,1.24-1.59,1.69-2.59
	c0.15-0.34,0.34-0.78,0.56-1.32c0.16-0.41,0.32-0.73,0.51-0.98c0.28-0.42,0.61-0.61,1.01-0.58c0.92,0.08,1.31,0.83,1.19,2.25
	c-0.13,1.43-0.68,2.75-1.67,3.95l2.78,0.24c0.88-1.2,1.38-2.53,1.51-4c0.13-1.45-0.13-2.64-0.77-3.55
	C176.99,97.66,176.06,97.15,174.82,97.04z M155.42,60.33l12.02-7.12L166.13,51l-12.02,7.12L155.42,60.33z M158.22,40.07l-1.37-1.73
	l-10.94,8.69l1.57,1.98l7.03-5.59l-3.05,10.59l1.33,1.67L163.72,47l-1.56-1.97l-7,5.56L158.22,40.07z M94.72,0
	C42.41,0.09,0.09,42.41,0,94.72c0.09,52.32,42.41,94.62,94.72,94.72c52.31-0.1,94.62-42.4,94.72-94.72
	C189.34,42.41,147.03,0.09,94.72,0z M94.72,185.8C44.43,185.7,3.73,145.03,3.64,94.72C3.73,44.42,44.43,3.73,94.72,3.64
	c50.3,0.09,90.98,40.78,91.08,91.08C185.7,145.03,145.02,185.7,94.72,185.8z M163.58,82.52l2.5-0.63l-1.67-6.64l3.48-0.88l1.31,5.19
	l2.46-0.62l-1.31-5.19l2.61-0.66l1.63,6.44l2.5-0.63l-2.26-8.95l-13.54,3.42L163.58,82.52z M164.05,86.67l5.63-0.44l0.17,2.17
	l-5.35,4.09l0.23,2.99l5.65-4.33c0.34,0.79,0.87,1.39,1.59,1.8c0.72,0.41,1.54,0.57,2.47,0.5c1.22-0.09,2.18-0.56,2.87-1.39
	c0.71-0.82,1.01-1.9,0.91-3.24l-0.45-5.8l-13.93,1.08L164.05,86.67z M175.47,85.78l0.24,3.08c0.05,0.58-0.07,1.05-0.34,1.4
	c-0.27,0.35-0.67,0.55-1.21,0.59c-0.54,0.04-0.97-0.09-1.29-0.4c-0.32-0.31-0.5-0.75-0.55-1.34l-0.24-3.08L175.47,85.78z
	 M159.14,68.15l14.99-0.74l-1.11-2.57l-10.69,0.62l7.77-7.36l-1.14-2.62l-10.79,10.43L159.14,68.15z M90.2,167.89
	c-0.91-0.41-2.42,0.46-2.81-0.07c-0.16-0.22,0.22-0.65,0.28-0.96c0.1-0.5-0.19-0.95-0.59-1.05c-0.26-0.07-0.25-0.4,0.05-0.43
	c0.44-0.04,0.65,0.01,1.1,0.06c0.84,0.08,1.33,0.04,1.85-0.71c0.16-0.23,0.09-0.73-0.26-0.98c-0.44-0.33-1.83-0.38-3.28-0.35
	c-1.57,0.03-3.23-0.02-3.56,0.54c-0.16,0.28-0.49,0.59-0.67,0.95c-0.26,0.51-0.41,0.98-0.71,1.19c-0.93,0.64-1.2,1.97-1.38,1.52
	c-0.12-0.31-0.58-0.29-0.85-0.35c-0.13-0.03-0.11-0.38,0.04-0.51c0.14-0.13,0.17-0.01,0.37-0.09c0.57-0.23,1.27-0.84,1.39-1.27
	c0.29-1.08,0.73-1.9,0.25-2.53c-0.41-0.54-1.13-0.78-1.87-0.83c-0.39-0.03-1.02,0.03-1.43,0.2c-0.7,0.29-0.94,1.16-1.36,2.2
	c-0.17,0.43-0.57,0.96-0.76,1.63c-0.23,0.85-0.53,2.03-0.67,2.64c-0.31,1.37-0.37,2.34-0.05,3.31c0.17,0.51,0,1.22,0.72,1.27
	c0.6,0.03,0.32-2.18,0.51-3.19c0.08-0.41,0.18-0.81,0.5-0.98c0.1-0.05,0.2-0.25,0.38-0.16c0.18,0.09-0.13,0.69,0.17,0.69
	c0.52,0.01,0.8-0.63,1.21-0.39c0.32,0.19-0.16,0.74-0.57,1.1c-0.82,0.69-1.2,1.98-0.08,2.29c0.48,0.13,1.04-0.52,1.28-1.18
	c0.19-0.51,0.14-0.85,0.32-1.25c0.15-0.32,0.43-0.38,0.65-0.77c0.21-0.37,0.37-0.79,0.68-1.23c0.36-0.5,0.88-1.01,1.21-1.41
	c0.38-0.45,0.71-0.89,1.13-1.15c0.42-0.26,1.03-0.42,1.4-0.17c0.26,0.18-0.83,0.81-1.5,1.43c-0.93,0.86-1.46,1.95-1.68,3.36
	c-0.08,0.57-0.39,2.14-0.02,2.48c0.27,0.25,0.51,0.34,0.87,0.31c0.88-0.09,0.57-1.74,1.08-2.44c0.11-0.15,0.21-0.43,0.47-0.29
	c0.26,0.14-0.45,3.44-0.89,5.38c-0.31,1.33-0.36,2.43-0.45,3.48c-0.04,0.44-0.06,0.86,0.59,0.98c0.91,0.18,1.26-1.77,1.47-2.98
	c0.18-1,0.52-2.49,0.95-3c0.48-0.56,1.61-0.93,2.31-1.08c0.71-0.15,1.31-1,1.71-1.33c0.55-0.44,1.04-1.96,1.15-2.5
	C91.03,168.53,90.8,168.16,90.2,167.89z M78.79,167.05c-0.93,0.27-1.17,0.97-1.32,1.36c-0.07,0.18-0.3,0.12-0.33-0.06
	c-0.07-0.43-0.06-1.18,0.3-1.74c0.48-0.75,0.67-1.36,1.05-1.84c0.48-0.61,1.11-0.86,1.25-0.7c0.27,0.31-0.38,0.67-0.4,0.98
	c-0.07,0.87-0.22,0.87-0.47,1.28C78.7,166.62,79.27,166.91,78.79,167.05z M84.76,167.8c-0.37,0.57-0.84,0.81-1.09,0.54
	c-0.19-0.2,0.76-1.06,1.18-1.6c0.53-0.68,0.64-0.57,0.82-0.42C85.87,166.49,85.26,167.02,84.76,167.8z M87.96,171.34
	c-0.53,0.34-0.83,0.49-1.17,0.44c-0.18-0.03-0.54-0.45-0.44-0.65c0.25-0.51,0.09-0.71,0.21-0.99c0.2-0.46,0.88-0.29,1.3-0.29
	c0.57,0,0.92-0.21,0.97,0.2C88.83,170.04,88.66,170.89,87.96,171.34z M46.66,144.89c-0.61,0.15-0.04,0.78,0.09,0.91
	c0.13,0.12,0.28,0.09,0.4,0.18c0.47,0.34,0.78,0.93,1.09,0.97c1.21,0.17,1.51-0.73,0.72-1.51C48.49,144.97,47.6,144.66,46.66,144.89
	z M98.49,95.9l18.7,14.02v-5.9l-18.7-14.02V95.9z M65.49,157.41c-0.2-0.37,0.5-1.25-0.54-1.25c-0.14,0-0.74-0.08-0.92,0.02
	c-0.18,0.1-0.49,0.79-0.56,0.76c-0.5-0.19-1.3-0.57-2.45-0.86c-1.09-0.27-1.7-1.06-2.57-0.79c-0.37,0.11-0.66,0.14-0.99,0.36
	c-0.56,0.39-0.43,1.24,0.21,1.63c0.28,0.17,2.17-0.12,2.9,0.04c0.86,0.19,1.73,0.43,1.81,0.79c0.04,0.18-0.17,0.48-0.52,0.72
	c-1.26,0.9-1.91,0.46-2.6,0.47c-0.15,0-0.1-0.29,0.14-0.42c0.33-0.18,0.95-0.24,0.97-0.36c0.03-0.15-0.97-0.5-1.89-0.56
	c-0.36-0.02-0.64,0.05-0.94,0.11c-0.9,0.18-2.21,1.64-2.73,3.21c-0.43,1.3-1.02,2.29-0.35,2.86c0.8,0.68,1.25-0.2,1.82-1.65
	c0.32-0.83,1.09-1.28,1.51-1.51c0.17-0.09,0.77-0.93,1.85-0.21c0.05,0.03-0.03,0.32-0.36,0.31c-0.42-0.01-0.97,0.23-1.08,0.47
	c-0.13,0.3,0.03,0.69-0.02,1.1c-0.05,0.41-0.85,0.32-0.3,1.14c0.04,0.06-0.48,0.26-0.67,0.14c-0.09-0.06-0.04-0.24-0.14-0.28
	c-0.3-0.12-0.79,0.58-0.87,0.65c-0.44,0.4-1.1,0.55-1.8,0.73c-1.19,0.31-2.79,0.87-3.7,1.26c-1.07,0.47-0.9,1.27,0.26,1.81
	c0.52,0.24,1.97-0.38,2.68-0.65c0.51-0.19,1.58-0.56,2.04-0.43c0.5,0.13-1.61,2.59-1.57,2.97c0.07,0.66,1.02,1.39,1.46,0.59
	c0.2-0.37,0.38-0.86,0.66-1.42c0.22-0.44,0.6-0.89,0.82-1.27c0.32-0.55,0.62-1.09,0.78-1.03c0.35,0.12,0.28,0.7,0.6,1.51
	c0.73,1.89,2.77,3.95,4.5,4.8c1.04,0.51,1.85,0.05,1.41-1.31c-0.1-0.31-0.18-0.52-0.24-0.67c-0.21-0.51-0.21,0.04-1.2-0.69
	c-0.28-0.21-1.42-1.41-2.04-1.94c-0.3-0.26-0.75-0.93-1.04-1.57c-0.18-0.42-0.69-0.63,0.18-1.05c0.53-0.25,0.16-0.87,0.61-0.95
	c0.38-0.07,1.1-0.04,1.59-0.15c0.59-0.13,1.34-0.56,2.26-0.89c0.86-0.31,2.08-1.98,1.6-2.66c-0.33-0.47-0.99-0.68-1.82-1.19
	c-0.42-0.26-1.34,0.26-0.88-0.39c0.31-0.45,0.36-0.66,0.85-0.68c0.76-0.03,2.99,1.19,3.28-0.09
	C67.76,157.87,65.93,158.19,65.49,157.41z M63.69,162.07c-0.1,0.78-1.23,1.32-2.03,1.51c-0.3,0.07-0.65,0.33-0.83,0.38
	c-0.48,0.11-0.43-0.12,0.03-0.59c0.26-0.26,0.82-0.84,0.46-1.26c-0.35-0.4,0.25-1.42,0.58-1.12
	C62.52,161.54,63.71,161.87,63.69,162.07z M45.33,141.91c0,0-0.52-0.41-0.78-0.45c-0.3-0.08-0.34,0.11-0.61,0.14
	c-0.28-0.03-0.47,0.19-0.57,0.41c-0.25,0.59,0.37,1.31,1.39,1.79C46,144.39,46.31,142.59,45.33,141.91z M48.14,147.46
	c-0.88-0.46-1.53-0.81-1.72-1.35c-0.01-0.04-0.18-0.6-0.38-0.68c-0.19-0.08-0.25,0.24-0.58-0.02c-0.33-0.26-1.45-1.42-2.41-1.78
	c-0.4-0.15-0.89-0.98-1.39-1.04c-0.48-0.06-1.73,0.35-1.25,1.39c0.21,0.46,1.52,0.33,2.51,1.12c0.48,0.38,1,0.14,1.16,0.82
	c0.07,0.27-0.07,0.24-0.22,0.25c-0.08,0.01-1.85-0.82-3.45-1.14c-1.12-0.23-2.11-0.41-2.49,0.62c-0.08,0.22,0.14,1.06-0.51,0.85
	c-0.62-0.2-1.63-0.32-2.01-0.01c-0.14,0.12-0.6,0.6-0.71,0.74c-0.48,0.66,0.39,1.23,0.14,1.44c-0.11,0.09-0.74-0.34-1.32-0.45
	c-0.39-0.07-0.81,0.34-0.97,0.55c-0.24,0.33,0.01,0.4,0.61,0.96c0.95,0.89,1.37,1.04,2.84,1.73c0.3,0.14,0.87,0.5,1.07,0.82
	c0.22,0.35-0.25,0.65-0.69,0.43c-0.9-0.45-4.72-2.3-4.21-0.15c0.12,0.52,0.89,1.2,1.17,1.34c0.31,0.15,1.25,0.26,1.32,0.74
	c0.07,0.54-1.39,1.01-1.12,1.89c0.18,0.58,0.5,1.01,0.88,0.82c0.6-0.31,1.68-1.64,2.01-1.62c0.96,0.07,2.38,2.32,3.36,1.76
	c1.15-0.65,1-1.52,0.64-1.75c-0.64-0.43-1.75-0.97-2.24-1.47c-0.19-0.2,0.18-0.48,0.49-0.66c0.75-0.44,1.87,1.31,2.99,2.25
	c0.83,0.7,0.65,0.78,1.15,1.27c0.7,0.7,1.83,0.49,2.18-0.73c0.13-0.46-2.08-2.13-2.93-2.7c-1.07-0.71-1.69-0.89-1.71-1.44
	c-0.02-0.61,0.73-0.18,0.74-0.17c0.95,0.86,5.34,1.3,5.12-1.5c-0.08-0.95,0.72-1.05-0.19-1.73c-0.08-0.06-1.09-0.6-1.15-0.88
	c-0.06-0.27,0.37-0.73,0.83-0.41c0.64,0.44,1.57,1.32,1.71,1.38C48.74,149.59,49.7,148.27,48.14,147.46z M42.82,146.83
	c0.18,0.3-0.14,0.52-0.81,0.45c-0.99-0.1-2.42-0.25-2.28-0.84C39.87,145.84,42.56,146.38,42.82,146.83z M35.99,148.06
	c-0.11-0.75,1.39-0.59,1.63-0.36C38.05,148.12,36.1,148.87,35.99,148.06z M40.29,149.47c-0.73,0.55-1.01,1.27-1.28,1.24
	c-0.41-0.04-0.74-0.38-1.11-0.54c-0.66-0.28-1.26-0.43-1.33-0.59c-0.14-0.34,0.31-0.07,0.64-0.31c1.14-0.86,1.64-1.39,2.13-1.29
	c0.51,0.1,0.73,0.32,1.03,0.36c0.6,0.09,0.99-0.03,0.96,0.09C41.32,148.53,40.87,149.04,40.29,149.47z M43.98,151.02
	c0.21,0.14-0.07,0.33-0.46,0.44c-0.29,0.08-2.13,0.26-2.19-0.24c-0.04-0.36,0.75-1.33,1.64-1.65c0.27-0.19,0.44-0.71,0.7-0.82
	c0.42-0.19,1.11,0.42,1.02,0.54c-0.08,0.13-0.71,0.3-0.84,0.7C43.73,150.4,43.63,150.77,43.98,151.02z M30.06,121.54l-2.3,1.16
	l3.08,6.11l-3.21,1.62l-2.41-4.78l-2.26,1.14l2.41,4.78l-2.41,1.21l-2.99-5.94l-2.3,1.16l4.15,8.25l12.48-6.28L30.06,121.54z
	 M28.98,118.56l-3.45-0.26L24,113.21l2.74-2.12l-0.79-2.63l-11.91,9.2l0.71,2.37l15.01,1.12L28.98,118.56z M17.85,117.84l4.12-3.15
	l1.06,3.53L17.85,117.84z M72.26,109.92l18.7-14.02v-5.91l-18.7,14.03V109.92z M115.26,171.57c-0.61,0.02-0.68,0.77-0.74,1.37
	l-0.06,0.46c-0.18,0.9-1.74,1.83-3.12,2.25l-0.37,0.12c-0.66,0.22-1.19,0.39-1.94,0.02c-0.33-0.16-0.6-0.83-0.6-1.5
	c0-0.53,0.17-0.91,0.47-1.06c0.13-0.06,0.16-0.02,0.22,0.06c0.13,0.18,0.3,0.29,1-0.15c0.06-0.04,0.09-0.2,0.14-0.5
	c0.04-0.25,0.09-0.53,0.17-0.7l0.27-0.5l0.18-0.35c0.13-0.57-0.03-1.12-0.44-1.51c-0.45-0.43-1.13-0.58-1.82-0.39
	c-1.01,0.28-1.97,1-2.82,1.63c-0.87,0.65-1.61,1.21-2.24,1.21c-0.23,0-0.39-0.11-0.53-0.21c-0.14-0.1-0.26-0.19-0.41-0.14
	c-0.21,0.06-0.42,0.38-0.71,1.08c-0.06,0.14-0.08,0.41-0.11,0.71c-0.04,0.49-0.09,1.11-0.33,1.28c-0.07,0.05-0.14,0.06-0.23,0.03
	c-0.09-0.02-0.16-0.08-0.2-0.17c-0.17-0.38,0.24-1.19,0.24-1.2c0-0.01,0.12-0.71,0.12-0.71c0.02-0.22,0.04-0.42,0.1-0.59
	c0.37-0.97,1.26-1.17,2.19-1.39c0.48-0.11,1.19-0.71,1.31-0.87c0.23-0.32-0.11-0.68-0.38-0.96l-0.05-0.05
	c-0.45-0.47-0.9-0.59-1.36-0.35c-0.39,0.2-0.87,0.7-1.42,1.28c-0.42,0.44-0.85,0.9-1.3,1.28l-0.16,0.13
	c-0.93,0.76-1.99,1.69-1.94,2.16c0.01,0.09,0.06,0.16,0.15,0.21c0.38,0.19,0.75-0.21,1.08-0.58c0.25-0.27,0.49-0.54,0.65-0.42
	c0.06,0.04,0.09,0.08,0.09,0.14c0.02,0.11-0.05,0.25-0.2,0.45l-0.07,0.09c-0.18,0.23-0.35,0.45-0.43,1.1
	c-0.12,0.91,0.06,1.12,0.37,1.46l0.31,0.38c0.14,0.19,0.15,0.5,0.15,0.7l0.03,0.23c0.21,0.24,0.38,0.23,0.5,0.21
	c0.1-0.01,0.15-0.02,0.22,0.09c0.15,0.25,0.07,0.87-0.06,0.94c-0.01,0-0.03,0.02-0.08-0.05c-0.11-0.18-0.44-0.12-0.56-0.1
	c-0.34,0.05-0.44,0.33-0.54,0.57l-0.07,0.18c-0.42,0.88,0.04,1.33,0.54,1.65c0.3,0.19,0.56,0.36,1.11,0.08
	c0.47-0.24,0.55-1.02,0.63-1.85l0.03-0.27c0.08-0.77,0.21-1.43,0.36-1.81c0.18-0.46,0.14-0.81,0.11-1.1l-0.01-0.41
	c0.1-0.51,0.39-0.7,0.75-0.95c0.19-0.13,0.4-0.28,0.61-0.49l0.49-0.5c0.59-0.62,1.06-1.11,1.88-1.55c0.27-0.15,0.55-0.38,0.82-0.6
	c0.37-0.31,0.75-0.62,1.13-0.75l0.08-0.03c0.34-0.11,0.97-0.32,1.19-0.1c0.07,0.07,0.27,0.62,0.15,0.88
	c-0.04,0.09-0.11,0.14-0.23,0.13c-0.19-0.01-0.21-0.12-0.24-0.29c-0.01-0.12-0.03-0.24-0.13-0.3c-0.19-0.11-0.79-0.02-0.8-0.01
	c-0.23,0.04-0.4,0.3-0.61,0.61c-0.15,0.22-0.31,0.47-0.52,0.66c-0.77,0.71-0.94,1.99-0.7,2.9c0.27,1.04,0.82,1.43,1.15,1.67
	l0.2,0.15c0.78,0.83,1.86,1.47,4.47,0.58c1.72-0.58,3.05-1.57,3.65-2.72c0.28-0.53,0.24-1.89-0.18-2.56
	C115.72,171.7,115.51,171.57,115.26,171.57z M72.26,94.94l18.7-14.02v-5.91l-18.7,14.02V94.94z M136.17,163.58
	c-0.8,0.46-1.79,0.57-2.39,0.69c-1.82,0.38-3.25-0.28-3.71-0.17c-0.46,0.1-0.26,1.24,0.09,1.79c1,1.57,4.11,1.09,5.95,0.57
	c0.71-0.2,1.48-0.9,2.1-1.27c0.66-0.4,1.31-0.51,1.27-0.96c-0.03-0.45,0.19-0.54-0.07-0.89
	C138.83,162.52,137.56,162.78,136.17,163.58z M102.96,165.21c0.21-0.48,0.53-0.77,0.81-1.04c0.17-0.16,0.32-0.3,0.41-0.45
	c0.16-0.27,0.16-0.56-0.02-0.8c-0.2-0.26-0.54-0.38-0.85-0.3c-0.56,0.15-1.38,1.17-1.76,1.78c-0.23,0.37-0.38,0.75-0.54,1.13
	c-0.17,0.41-0.32,0.8-0.56,1.15c-0.26,0.37-0.08,0.9,0.21,1.26c0.26,0.33,0.74,0.65,1.2,0.47c0.1-0.04,0.15-0.15,0.2-0.28
	c0.1-0.22,0.21-0.5,0.65-0.57c0.21-0.03,0.35,0.11,0.53,0.27c0.21,0.19,0.44,0.41,0.83,0.32c0.39-0.1,0.67-0.6,0.92-1.04l0.19-0.32
	c0.33-0.52,1.91-2.39,2.52-2.62c0.29-0.11,0.47-0.13,0.57-0.07c0.11,0.07,0.14,0.24,0.17,0.49l0.03,0.21
	c0.04,0.21,0.19,0.31,0.33,0.4c0.12,0.08,0.23,0.14,0.23,0.27c0,0.3-0.24,0.47-0.49,0.66c-0.25,0.18-0.5,0.37-0.53,0.69
	c-0.03,0.39,0.08,0.73,0.29,0.91c0.17,0.13,0.38,0.17,0.64,0.09c0.35-0.1,0.51-0.48,0.68-0.89c0.11-0.25,0.21-0.51,0.37-0.73
	c0.24-0.32,0.48-0.39,0.74-0.46c0.22-0.06,0.45-0.13,0.66-0.37c0.19-0.22,0.27-0.47,0.22-0.72c-0.06-0.3-0.3-0.56-0.68-0.74
	c-0.52-0.25-0.77,0.08-0.94,0.3c-0.06,0.08-0.11,0.15-0.15,0.15l-0.04-0.02c-0.3-0.3-0.14-0.64,0.03-1c0.08-0.17,0.16-0.35,0.2-0.53
	c0.04-0.24,0-0.43-0.13-0.54c-0.19-0.16-0.56-0.15-1.08,0.05c-0.22,0.08-0.4,0.28-0.59,0.49c-0.18,0.2-0.37,0.41-0.62,0.54
	c-0.66,0.33-1.1,0.72-1.46,1.03c-0.26,0.23-0.46,0.41-0.66,0.48c-0.14,0.05-0.4,0.07-0.68,0.1c-0.49,0.04-1.04,0.09-1.24,0.3
	l-0.31,0.46c-0.13,0.23-0.27,0.46-0.39,0.49l-0.08-0.02c-0.2-0.14-0.04-0.5,0.12-0.84L102.96,165.21z M132.41,160.35
	c0.45-0.78,0.54-1.69-0.32-1.83c-0.32-0.05-0.45-0.11-0.99,0.19c-0.92,0.51-0.56,0.94-1.17,1.3c-0.27,0.16-0.53-1.01-0.06-1.41
	c0.98-0.83,1.95-2.08,1.62-3.16c-0.27-0.89-0.75-1.62-1.93-0.58c-0.61,0.55-1.39,1.35-1.84,2.64c-0.58,1.66-0.92,3.51-1.73,4.62
	c-0.52,0.72-0.6,0.29-1.22,0.81c-1.72,1.48-2.66,2.84-1.83,3.72c0.57,0.61,1.39,0.44,1.83,0.31c0.54-0.16,0.86-0.6,0.96-0.3
	c0.09,0.3-0.37,1.58-0.6,2.62c-0.09,0.41-0.51,1.36-1.09,2.09c-0.98,1.22-1.26,1.64-0.97,2.03c0.35,0.47,0.98,0.42,1.51,0.06
	c0.59-0.4,2.66-3.48,3.32-6.9c0.12-0.61,0.54-1.31,0.72-1.81c0.24-0.67,0.09-1.11,0.47-1.57
	C130.21,161.81,131.83,161.34,132.41,160.35z"/>
</svg>
