<?xml version="1.0" encoding="UTF-8" standalone="no"?>
<!-- Created with Inkscape (http://www.inkscape.org/) -->

<svg
   width="38.390778mm"
   height="10.273258mm"
   viewBox="0 0 38.390778 10.273258"
   version="1.1"
   id="svg1"
   xmlns:xlink="http://www.w3.org/1999/xlink"
   xmlns="http://www.w3.org/2000/svg"
   xmlns:svg="http://www.w3.org/2000/svg">
  <defs
     id="defs1" />
  <text
     xml:space="preserve"
     style="font-size:9.87778px;text-align:start;writing-mode:lr-tb;direction:ltr;text-anchor:start;white-space:pre;inline-size:44.9433;fill:#f2f2f2;stroke:#f2f2f2;stroke-width:0.001;stroke-dasharray:none"
     x="16.054153"
     y="111.77237"
     id="text1"
     transform="translate(-16.931998,-106.80981)"><tspan
       x="16.054153"
       y="111.77237"
       id="tspan4"><tspan
         style="font-family:'Consolas Nerd Font';-inkscape-font-specification:'Consolas Nerd Font'"
         id="tspan1">syqwq</tspan></tspan></text>
  <path
     style="fill:none;stroke:#f2f2f2;stroke-width:0.499999;stroke-dasharray:none"
     d="m 14.202267,8.2065107 c 0,0 2.772002,1.8810003 5.247001,1.8150003 2.475,-0.066 3.564,-0.7260003 5.643001,-2.0130003"
     id="path1" />
  <rect
     style="fill:#f2f2f2;stroke:#f2f2f2;stroke-width:0.417315;stroke-dasharray:none"
     id="rect2"
     width="3.5110991"
     height="0.16334167"
     x="28.207355"
     y="0.2086575" />
  <rect
     style="fill:#f2f2f2;stroke:#f2f2f2;stroke-width:0.499999;stroke-dasharray:none"
     id="rect3"
     width="0.046669047"
     height="0.86337733"
     x="29.939571"
     y="0.83870053" />
  <use
     x="0"
     y="0"
     xlink:href="#rect2"
     id="use3"
     transform="translate(6.463663,0.03331)"
     style="fill:#f2f2f2;stroke:#f2f2f2" />
  <use
     x="0"
     y="0"
     xlink:href="#rect3"
     id="use4"
     transform="translate(6.463663,0.03331)"
     style="fill:#f2f2f2;stroke:#f2f2f2" />
  <rect
     style="fill:#f2f2f2;stroke:#f2f2f2;stroke-width:0.499999;stroke-dasharray:none"
     id="rect4"
     width="8.1904173"
     height="0.070003569"
     x="29.122868"
     y="4.035531" />
  <path
     id="path9"
     style="fill:none;stroke:#f2f2f2;stroke-width:0.499999"
     d="m 31.234331,6.6424807 -0.01657,-2.28498 0.01657,2.28498 a 2.1704185,2.1701107 0 0 0 1.085209,1.87937 2.1704185,2.1701107 0 0 0 2.170418,0 2.1704185,2.1701107 0 0 0 1.08521,-1.87937 l -0.0014,-2.28679 0.0014,2.28679" />
  <path
     style="fill:#f2f2f2;stroke:#f2f2f2;stroke-width:0.419399;stroke-dasharray:none"
     d="m 33.396467,5.3239207 v 2.29862 z"
     id="path10" />
</svg>
